<?xml version="1.0" encoding="utf-8"?>
<!-- Generator: Adobe Illustrator 26.0.3, SVG Export Plug-In . SVG Version: 6.00 Build 0)  -->
<svg version="1.1" id="_ÎÓÈ_1" xmlns="http://www.w3.org/2000/svg" xmlns:xlink="http://www.w3.org/1999/xlink" x="0px" y="0px"
	 viewBox="0 0 4000 4000" style="enable-background:new 0 0 4000 4000;" xml:space="preserve">
<style type="text/css">
	.st0{fill:url(#SVGID_1_);stroke:#000000;stroke-width:1.0171;stroke-miterlimit:10;}
	.st1{opacity:0.24;enable-background:new    ;}
</style>
<linearGradient id="SVGID_1_" gradientUnits="userSpaceOnUse" x1="-27.0477" y1="1998.2571" x2="4055.4058" y2="1998.2571">
	<stop  offset="2.273479e-04" style="stop-color:#842908"/>
	<stop  offset="0.999" style="stop-color:#441504"/>
</linearGradient>
<rect x="-27" y="-29.1" class="st0" width="4082.5" height="4054.7"/>
<polygon class="st1" points="3092.5,285.5 3329.5,307.5 3451.5,68.5 3760.5,62.5 3784.8,0 3410,0 3282.8,234.5 3145.5,218.5 3038,0 
	2956.7,0 "/>
<polygon class="st1" points="3486.5,123.5 3443,227.5 3407.5,315.5 4000,431.9 4000,358.3 3529.5,253.5 3573.5,126.5 "/>
<polygon class="st1" points="3633.5,562.5 3127.5,505.5 3124.5,558.5 3415.5,861.5 3477.5,819.5 3279.5,604.5 3623.5,641.5 "/>
<polygon class="st1" points="3610.5,731.5 3615.5,697.5 3397.5,667.5 3522.5,791.5 "/>
<polygon class="st1" points="3794.5,580.5 3712.5,569.5 3665.6,732 3454.5,903.5 3538.2,1051.2 3621.5,1003.5 3571.5,912.5 
	3726.5,807.5 "/>
<polygon class="st1" points="4000,913.7 4000,635 3841.5,607.5 3822.5,689.5 3995.5,715.5 3931.5,900.5 3788.3,781 3758.5,847.5 
	3954.5,1038.5 "/>
<path class="st1" d="M3843.5,721.5l-17,53l84,66l38-103L3843.5,721.5z M3887.5,794l-30.2-20.7l7.2-24.7l36,4L3887.5,794z"/>
<polygon class="st1" points="3500.5,1464.5 3593.5,1642.5 3960.5,1606.5 3930.5,1534.5 3623.5,1573.5 3579.5,1503.5 3881.5,1418.5 
	4000,1505.7 4000,1402 3897.5,1320.5 "/>
<polygon class="st1" points="3656.5,1523.5 3663.5,1537.5 3886.5,1511.5 3857.5,1457.5 "/>
<polygon class="st1" points="3633.5,213.5 4000,301.2 4000,201 3891.5,170.5 3945.9,0 3862.3,0 3816.5,127.5 3642.5,138.5 "/>
<polygon class="st1" points="4000,126.7 4000,89.5 3989.8,123.5 "/>
<polygon class="st1" points="3159.6,785.5 3508.5,1199.5 3900.5,1082 3713.5,869.5 3646.5,903.5 3746.5,1034.5 3529.2,1105.1 
	3164.5,674.5 2708,1009.5 2708,1101.5 "/>
<polygon class="st1" points="3096.5,1396.5 3023.5,1286.5 2866.5,1401.5 "/>
<polygon class="st1" points="3156.4,1199.5 3204.5,1174.5 3128.5,1081.5 2801.5,1302.5 2846.5,1365.5 3127.5,1166.5 "/>
<polygon class="st1" points="2708,1332.7 2708,1414.7 2721,1413.5 2757.5,1477.5 2708,1577.6 2708,1714.9 2849.5,1467.5 
	2749.5,1327.5 "/>
<polygon class="st1" points="2977.5,739.5 2897.5,528.5 2708,627.7 2708,706.8 2840.5,632.5 2905.5,795.5 "/>
<polygon class="st1" points="2859.5,830.5 2822.5,695.5 2766.5,726.5 2784.5,820.5 2708,877.3 2708,949.3 "/>
<polygon class="st1" points="2746.5,814.5 2736.5,758.5 2708,772.6 2708,842.7 "/>
<polygon class="st1" points="2832,75.5 2878.5,213.5 2773.5,219.5 2798.5,433.5 2708,480.9 2708,562.6 2896.5,468.5 2859.5,283 
	3004.5,283.5 2861.8,0 2802.9,0 2708,7.5 2708,82.6 "/>
<polygon class="st1" points="2708,337.6 2708,411.7 2731.7,399.5 2723.7,329.7 "/>
<polygon class="st1" points="2811.5,165.5 2797.7,112.5 2708,119.2 2708,187.8 "/>
<polygon class="st1" points="2708,306.1 2719.2,302 2719.2,224.4 2708,226.1 "/>
<polygon class="st1" points="3017.5,708.5 3079.5,657.5 3035.5,438.5 4000,583.9 4000,493.5 2907.5,336.5 "/>
<polygon class="st1" points="3257.5,163.5 3333.6,0 3259.6,0 3224.5,74.5 3188.6,0 3096.7,0 3168.5,150.5 "/>
<polygon class="st1" points="3884.5,1806.5 3826.5,1809.5 3937.5,2002.5 4000,1995.7 4000,1912.5 3953.5,1913.5 "/>
<path class="st1" d="M3772.5,2334.5l-158-217l-128,60l135,314l-141,320l129,62l158-215l189,9.8l43.5-75.9v-191.7l-43.5-74.2
	L3772.5,2334.5z M3909.5,2610.5l-182-6l-144,187l-35-26l163-273l-163-278.1l37-22.9l19,28l126,169l179-2l76,112L3909.5,2610.5z"/>
<path class="st1" d="M3746.5,2435.5l24.6,56l-27.6,62l144,8l41.8-63l-39.7-63H3746.5z M3874.5,2538.5l-94-5l22-44.7l-15-31.3h89.7
	l25.5,41L3874.5,2538.5z"/>
<polygon class="st1" points="3816.5,2473.5 3832.1,2495.5 3816.5,2515.4 3864.5,2518.5 3878.4,2498.5 3865.5,2476.5 "/>
<polygon class="st1" points="3817.5,3185.5 3873.5,3189.2 3944.5,3083.5 4000,3085.3 4000,3001.2 3929.5,2991.5 "/>
<polygon class="st1" points="3989.5,3226.5 4000,3224.8 4000,3150.7 3939.5,3161.5 3897.9,3235 3985.6,3235 "/>
<polygon class="st1" points="3648.2,1746 3864.5,2153.5 4000,2139.6 4000,2062.8 3919.5,2071.5 3743.5,1766.5 3902.5,1751.5 
	3951,1834 4000,1843.6 4000,1769.6 3999.5,1769.5 3989.5,1746 3989.5,1746 3954.5,1663.5 3622.5,1697.5 "/>
<polygon class="st1" points="3645,3235 3798.3,3235 3734.5,3228.5 3913.5,2924.5 4000,2934.8 4000,2858.8 3859.5,2841.5 "/>
<polygon class="st1" points="3292.5,2881.5 3575.5,3044.5 3480.8,3235 3574.9,3235 3807.5,2786.5 4000,2806.8 4000,2727.4 
	3772.5,2703.5 3611.5,2971.5 3398.5,2848.5 3548.5,2492.5 3404.5,2140.5 3619.5,2020.5 3775.8,2290.3 4000,2271.1 4000,2191.3 
	3812.5,2208.5 3579.8,1746 3579.7,1746 3407.6,1401.5 3929.5,1240.5 4000,1303.7 4000,1189.6 3955.5,1147.5 3295.5,1352.5 
	3486.9,1746 3486.9,1746 3584.5,1948.5 3299.5,2107.5 3453.5,2492.5 "/>
<polygon class="st1" points="2749.5,1968.5 2861.7,1746 2861.8,1746 2975.5,1520.5 3287.5,1524.5 3203.5,1326.5 3429.8,1222 
	3148.9,888.5 2708,1179.8 2708,1273.8 2723.5,1273.5 3139.5,1005.5 3289.5,1176.5 3100.5,1293.5 3166.5,1439.5 2945.5,1442.5 
	2779.7,1746 2779.7,1746 2708,1877.3 2708,1969.6 "/>
<polygon class="st1" points="3102.5,2438.5 3113.3,2462.5 3202.2,2462.5 3147.5,2335.5 3057.5,2378.5 2880.5,2232.5 2889.5,2462.5 
	2959.3,2462.5 2956.5,2403.5 3053.5,2459.5 "/>
<polygon class="st1" points="3057.5,2605.5 3147.5,2648.5 3202.2,2521.5 3113.3,2521.5 3102.5,2545.5 3053.5,2524.5 2956.5,2580.5 
	2959.3,2521.5 2889.5,2521.5 2880.5,2751.5 "/>
<polygon class="st1" points="2741.8,2290.5 2773.4,2490 2737.8,2684.5 2708,2683.4 2708,2751 2812.8,2754.5 2844.5,2483.5 
	2818.8,2224.5 2708,2226.4 2708,2291.3 "/>
<polygon class="st1" points="2708,2522.9 2718.8,2483.5 2708,2440.4 "/>
<path class="st1" d="M3383.9,1746L3383.9,1746l-65.3-151.5l-305.3-5.1l-78.6,156.6l0,0l-74.1,147.5l230,239l369-209l-16.5-40.3
	L3383.9,1746z M3123.5,2031.5l-159-155l66.2-130.5l0,0l36.8-72.5l198,9l30.2,63.5l0,0l68.8,144.5L3123.5,2031.5z"/>
<polygon class="st1" points="3219.1,1746 3217.5,1742.5 3104.5,1735.5 3099.5,1746 3099.5,1746 3082.5,1781.5 3164.5,1792.5 
	3187.5,1838.5 3135,1860.9 3067.5,1807.5 3043.5,1857.5 3136.5,1947.5 3272.7,1860.9 "/>
<polygon class="st1" points="2768.7,3235 2850.6,3235 2739.5,3009.5 2708,3008.2 2708,3121.9 "/>
<polygon class="st1" points="2814.5,2145.5 2852.5,2106.5 3068.5,2293.5 3196.5,2236.5 3291.5,2488.5 3192.5,2744.5 3064.5,2686.5 
	2846.5,2871.5 2808.5,2831.5 2708,2830.9 2708,2918.8 2769.5,2919.5 2817.5,3006.5 3063.5,2776.5 3225.5,2855.5 3379.5,2489.5 
	3232.5,2126.5 3068.5,2202.5 2826.2,1969.5 2777.5,2056.5 2708,2056.4 2708,2145.4 "/>
<polygon class="st1" points="2850.5,3089.5 2920.9,3235 3017.4,3235 2955.5,3108.5 3114.5,2954.5 3355.5,3097.5 3287.8,3235 
	3376.3,3235 3451.5,3065.5 3084.5,2853.5 "/>
<polygon class="st1" points="3123.4,3129.9 3177.5,3146.5 3154.5,3193.5 3071.5,3202.5 3085.7,3235 3211.4,3235 3261.5,3128.5 
	3128.1,3037.8 3033.5,3128.5 3057.5,3177.5 "/>
<polygon class="st1" points="2917.5,3917.5 2956.7,4000 3038,4000 2961.5,3844.5 2708,3844.5 2708,3917.3 "/>
<polygon class="st1" points="3688.5,3990.5 3413.5,3993.5 3410,4000 3784.8,4000 3888.5,3733.5 4000,3768.8 4000,3671.2 
	3838.5,3618.5 "/>
<path class="st1" d="M3392.5,3412.5l-22,224l39,41l67-9l67-170l-56-95l87.4-168.5h-94.1L3392.5,3412.5z M3496.5,3503.5l-33,110
	l-20.5,1.8v0.1l-24.3,3.1l20.8-168l3.5,0.1l17.5-1.1L3496.5,3503.5z"/>
<polygon class="st1" points="4000,3336.8 4000,3325.8 3995.5,3337.5 "/>
<polygon class="st1" points="4000,3511.1 3970.5,3501.5 4000,3431.7 4000,3373.7 3961.5,3381.5 3865.5,3566.5 4000,3608.7 "/>
<polygon class="st1" points="3612.5,3294.5 3940.5,3333.5 3985.6,3235 3897.9,3235 3892.5,3244.5 3798.3,3235 3645,3235 "/>
<polygon class="st1" points="3862.3,4000 3945.9,4000 4000,3830.4 4000,3821.8 3933.5,3801.5 "/>
<polygon class="st1" points="2708,3557.9 2783.5,3555.5 2798.5,3496.5 2782.5,3426.5 2708,3290.8 2708,3439.5 2725.5,3489.5 
	2708,3489.2 "/>
<polygon class="st1" points="2927.9,3772.5 2934.5,3492.5 2862.5,3492.5 2862.5,3678.5 2789.5,3676.5 2782.5,3612.5 2708,3611.7 
	2708,3766.8 "/>
<polygon class="st1" points="2802.9,4000 2861.8,4000 2859.5,3995.5 "/>
<polygon class="st1" points="3315.5,3881.5 3259.6,4000 3333.6,4000 3358.5,3946.5 3637.5,3938.5 3852.5,3381.5 3646.5,3361.5 
	3503.5,3736.5 3365.5,3744.5 3316.5,3678.5 3332.5,3495.5 3260.5,3424.5 3045.5,3429.5 3142.5,3492.5 3143.5,3807.5 3224.5,3965.5 
	3253.5,3893.5 3202.5,3794.5 3206.5,3493.5 3167.5,3452.5 3226.5,3453.5 3263.5,3492.5 3251.5,3720.5 3334.5,3821.5 3543.5,3806.5 
	3699.5,3426.5 3765.5,3432.5 3586.5,3880.5 "/>
<polygon class="st1" points="2865.5,3415.5 3002.5,3491.5 3004.5,3806.7 3096.7,4000 3188.6,4000 3067.5,3748.5 3075.5,3490.5 
	2943.5,3423.5 2850.6,3235 2768.7,3235 "/>
<polygon class="st1" points="3252.5,3306.5 3055.1,3311.9 3017.4,3235 2920.9,3235 2999.5,3397.5 3305.5,3394.5 3376.3,3235 
	3287.8,3235 "/>
<polygon class="st1" points="3092.5,3250.5 3206.5,3245.5 3211.4,3235 3085.7,3235 "/>
<polygon class="st1" points="1123.5,59.5 1432.5,66.5 1556.6,307.5 1793.5,285.5 1928.9,0 1846.4,0 1737.5,219.5 1601.5,234.5 
	1474.5,0 1100.2,0 "/>
<polygon class="st1" points="1623.3,0 1548.9,0 1627.5,165.5 1716.5,151.5 1787.4,0 1697.4,0 1659.5,77.5 "/>
<polygon class="st1" points="1724.5,785.5 2229.5,1136.5 2656.5,1137.5 2708,1101.5 2708,1009.5 2623.5,1071.5 2260.5,1070.5 
	1720.2,674.5 1356.5,1104.5 1138.8,1036.5 1237.5,902.5 1170.5,868.5 983.5,1081.4 1375.5,1199.5 "/>
<polygon class="st1" points="2673.5,1202.5 2466.2,1201.5 2466.5,1277.5 2708,1273.8 2708,1179.8 "/>
<polygon class="st1" points="2084.5,1302.5 1757.5,1081.5 1681.5,1174.5 1729.6,1199.5 1758.5,1166.5 2039.5,1365.5 "/>
<polygon class="st1" points="2624.7,1746 2624.7,1746 2622.5,1750.5 2441.6,1765.2 2263.5,1749.5 2261.7,1746 2261.7,1746 
	2126.5,1477.5 2164.5,1413.5 2442.5,1439.3 2708,1414.7 2708,1332.7 2444.9,1365.5 2134.5,1327.5 2035.5,1465.5 2196.3,1746 
	2196.4,1746 2238.5,1819.5 2648.1,1819.5 2690.2,1746 2690.2,1746 2708,1714.9 2708,1577.6 "/>
<polygon class="st1" points="2213.5,1471.5 2197.5,1494.5 2235.5,1558.5 2383.5,1567.5 2385.5,1636.5 2264.5,1634.5 2289.5,1692.5 
	2422.5,1699.5 2419.5,1480.5 "/>
<polygon class="st1" points="2622.5,1634.5 2501.5,1636.5 2503.5,1567.5 2651.5,1558.5 2689.5,1494.5 2673.5,1471.5 2467.5,1480.5 
	2464.5,1699.5 2597.5,1692.5 "/>
<polygon class="st1" points="2358.5,1016.5 2412.5,1021.3 2412.5,752.5 1984.5,528.5 1904.5,739.5 1976.5,795.5 2041.5,632.5 
	2355.5,808.5 "/>
<polygon class="st1" points="2059.5,695.5 2022.5,830.5 2244.5,1004.5 2293.8,1004.5 2303.5,836.5 2246.5,800.5 2225.5,915.5 
	2097.5,820.5 2115.5,726.5 "/>
<polygon class="st1" points="2145.5,758.5 2135.5,814.5 2206.5,866.5 2220.5,795.5 "/>
<polygon class="st1" points="2469.5,752.5 2469.5,1021.3 2523.5,1016.5 2526.5,808.5 2708,706.8 2708,627.7 "/>
<polygon class="st1" points="2635.5,800.5 2578.5,836.5 2588.2,1004.5 2637.5,1004.5 2708,949.3 2708,877.3 2656.5,915.5 "/>
<polygon class="st1" points="2708,772.6 2661.5,795.5 2675.5,866.5 2708,842.7 "/>
<polygon class="st1" points="2022.5,283 1989.5,465.5 2441.6,695.5 2708,562.6 2708,480.9 2444.2,619 2085.5,433.5 2108,219.5 
	2005.5,212.5 2049.5,75.5 2441.6,97.7 2708,82.6 2708,7.5 2442.9,28.4 2084.8,0 2026.3,0 1884,283 "/>
<polygon class="st1" points="2084.5,112.5 2070.7,165.5 2345.5,224.5 2345.5,423.5 2158.5,329.7 2150.5,399.5 2412.5,533.7 
	2406.5,136.5 "/>
<polygon class="st1" points="2163,224.4 2163,302 2309.5,356.4 2309.5,247.5 "/>
<polygon class="st1" points="2536.7,423.5 2536.7,224.5 2708,187.8 2708,119.2 2475.7,136.5 2469.7,533.7 2708,411.7 2708,337.6 "/>
<polygon class="st1" points="2572.7,247.5 2572.7,356.4 2708,306.1 2708,226.1 "/>
<polygon class="st1" points="1907.5,1519.5 2023,1746 2023,1746 2136.5,1968.5 2438.5,1976.5 2708,1969.6 2708,1877.3 
	2691.5,1907.5 2193.5,1903.5 2106.6,1746 2106.6,1746 1938.5,1441.5 1719.5,1437.5 1782.5,1292.5 1595.5,1175.5 1744.5,1004.5 
	2160.5,1272.5 2417.5,1275.8 2417.5,1202.5 2213.2,1201.7 1736.5,888.5 1453.5,1222 1681.5,1326.5 1595.5,1523.5 "/>
<polygon class="st1" points="1828.2,2378.5 1738.2,2335.5 1683.5,2462.5 1772.4,2462.5 1783.2,2438.5 1832.2,2459.5 1929.2,2403.5 
	1926.5,2462.5 1996.2,2462.5 2005.2,2232.5 "/>
<polygon class="st1" points="1783.2,2545.5 1772.4,2521.5 1683.5,2521.5 1738.2,2648.5 1828.2,2605.5 2005.2,2751.5 1996.2,2521.5 
	1926.5,2521.5 1929.2,2580.5 1832.2,2524.5 "/>
<path class="st1" d="M2045.8,2485.5l31.7,271l357-12l-6.5-512l-356.5-6L2045.8,2485.5z M2148.5,2292.5l216,5l7,381l-219,8
	l-35.6-194.5L2148.5,2292.5z"/>
<path class="st1" d="M2308.5,2616.8v-258.3l-104-5l-33,132l38,139L2308.5,2616.8z M2230.7,2405.5h48.8v57h-63.9L2230.7,2405.5z
	 M2279.5,2517.2v66.7h-46.2l-17.8-62.4L2279.5,2517.2z"/>
<polygon class="st1" points="2708,2683.4 2518.8,2676.5 2525.8,2295.5 2708,2291.3 2708,2226.4 2462.3,2230.5 2455.8,2742.5 
	2708,2751 "/>
<path class="st1" d="M2685.8,2351.5l-104,5v258.3l99,7.7l27.2-99.6v-82.5L2685.8,2351.5z M2656.9,2581.9h-46.2v-66.7l63.9,4.3
	L2656.9,2581.9z M2610.8,2460.5v-57h48.8l15.1,57H2610.8z"/>
<polygon class="st1" points="2636.5,3160.5 2443,3134.7 2248.5,3159.5 2206.4,3235 2272.4,3235 2275.5,3228.5 2415.5,3227.5 
	2470.5,3227.5 2610.5,3231.5 2612.2,3235 2677.4,3235 "/>
<polygon class="st1" points="1659.5,2856.5 1823.5,2779.5 2068.5,3007.5 2116.5,2921.5 2368.5,2917.5 2368.5,3002.1 2146.5,3011.5 
	2036.9,3235 2118.4,3235 2204.5,3074.5 2420.5,3073.5 2420.5,2831 2077.5,2833.5 2040.5,2873.5 1820.5,2687.5 1694.5,2747.5 
	1595.5,2490.5 1687.5,2238.5 1806,2291.7 2032.5,2105.5 2069.5,2144.5 2708,2145.4 2708,2056.4 2107.5,2055.5 2058.5,1969.5 
	1806,2200.7 1651.5,2129.5 1506.5,2491.5 "/>
<polygon class="st1" points="2463.5,2829.5 2462.5,3071.5 2681.5,3072.5 2708,3121.9 2708,3008.2 2512.5,3000.5 2512.5,2916.5 
	2708,2918.8 2708,2830.9 "/>
<polygon class="st1" points="258.2,756.5 626.5,756.5 546.5,495.5 1477.5,313.5 1399,123.5 1310.1,123.5 1356.5,253.5 451.5,455.5 
	452.5,571.5 513.6,661.5 369.5,661.5 432.5,571.8 432.5,454.5 0,358.3 0,431.9 339.5,498.5 "/>
<polygon class="st1" points="0,635 0,913.7 95.5,651.5 "/>
<polygon class="st1" points="0,1505.7 138.5,1607.5 185.5,1549.5 0,1402 "/>
<polygon class="st1" points="133.5,1681.5 6.5,1659.5 39.5,1745.5 42.2,1746 42.4,1746 198.5,1772.5 207.6,1746 207.6,1746 
	275.5,1547.5 241,1537.5 "/>
<polygon class="st1" points="122.5,1204.5 192.5,1280.5 426.5,1264.5 426.5,1202.3 250.5,1222 206.5,1195.5 246.5,1131.5 
	426.5,1112.5 426.5,1053.6 175.5,1070.5 "/>
<polygon class="st1" points="460.5,1201.5 458.5,1262.2 691.5,1278.5 762.5,1201.5 707.5,1068.5 458.5,1052.6 458.5,1111.5 
	636.5,1129.5 675.5,1193.5 636.9,1222 "/>
<path class="st1" d="M444.5,1003.5l241,10l-82-204H279l-81.5,204L444.5,1003.5z M340,874.5h202.5l24,62l-122.8-31l-125.6,31
	L340,874.5z"/>
<polygon class="st1" points="609.5,1547.5 677,1746 677,1746 686.1,1772.5 831.8,1746 832,1746 845.5,1743.5 877.5,1658.5 
	749.5,1679.5 643.5,1534.5 "/>
<polygon class="st1" points="924.5,1605.5 1291.5,1643.5 1384.2,1465.5 987.5,1320.5 696.5,1547.5 745.5,1606.5 1003.5,1417.5 
	1304.5,1502.5 1259.5,1573.5 953.3,1534.5 "/>
<polygon class="st1" points="1027.5,1457.5 999.5,1511.5 1221.5,1537.5 1228.5,1522.5 "/>
<polygon class="st1" points="876.5,1090.5 728.5,607.5 1848.5,436.5 1803.5,657.5 1867.5,707.5 1976.5,335.5 613.5,530.5 
	806.5,1159.5 "/>
<polygon class="st1" points="1124.5,849.5 1096.5,783.5 952.5,899.5 886.5,715.5 1062.5,687.5 1044.5,608.5 789.5,651.5 
	930.5,1036.5 "/>
<path class="st1" d="M974.5,841.5l83-69l-16-52l-105,16L974.5,841.5z M1020.3,747.5l6.2,24L997,794l-13.5-40.5L1020.3,747.5z"/>
<polygon class="st1" points="1346.5,1050.5 1429.5,902.5 1220.5,731.5 1171.5,568.5 1090.5,580.5 1159,809.5 1313.5,911.5 
	1262.5,1003.5 "/>
<polygon class="st1" points="1487.5,666.5 1269.5,696.5 1272.5,730.5 1361.5,790.5 "/>
<polygon class="st1" points="1759.5,557.5 1756.5,504.5 1250.5,562.5 1260,641.7 1604.5,603.5 1406.5,818.5 1468.5,862.5 "/>
<polygon class="st1" points="2019.5,1401.5 1862.5,1286.5 1789.5,1396.5 "/>
<polygon class="st1" points="1250.5,213.3 1240.5,137.5 1069.8,123.5 1024.1,0 938.8,0 993.5,169.5 442.5,325.3 0,201 0,301.2 
	442.5,407 "/>
<polygon class="st1" points="0,126.7 380.5,245.5 392.1,0 246.9,0 345.5,30.5 331.5,136.5 108.5,65.5 120.7,0 26.9,0 0,89.5 "/>
<polygon class="st1" points="890.5,123.5 853.4,0 759.6,0 771.8,65.5 548.8,136.5 534.8,30.5 633.4,0 488.2,0 499.8,245.5 "/>
<polygon class="st1" points="7.5,1091.5 78.5,1159.5 271.5,532.5 0,493.5 0,583.9 156.5,607.5 "/>
<polygon class="st1" points="0,1912.5 0,1995.7 75.5,1987.5 47.5,1911.5 "/>
<polygon class="st1" points="0,2400.7 0,2592.4 55.6,2495.5 "/>
<path class="st1" d="M1123.6,2658.5l158,215l129-62l-141-320l135-314l-128-60l-158,217l-184-8l-99.1,169l99.1,172.8L1123.6,2658.5z
	 M981.6,2386.5l179,2l126-169l19-28l37,22.9l-163,278.1l163,273l-35,26l-144-187l-182,6l-76-112L981.6,2386.5z"/>
<path class="st1" d="M1147.6,2553.5l-27.6-62l24.6-56h-143.1l-39.7,63l41.8,63L1147.6,2553.5z M1013.9,2457.5h89.7l-15,31.3l22,44.7
	l-94,5l-28.2-40L1013.9,2457.5z"/>
<polygon class="st1" points="1074.6,2515.4 1058.9,2495.5 1074.6,2473.5 1025.6,2476.5 1012.7,2498.5 1026.6,2518.5 "/>
<polygon class="st1" points="0,3085.3 37.5,3086.5 67.5,3010.5 0,3001.2 "/>
<polygon class="st1" points="1009.5,3189.2 1065.5,3185.5 953.5,2991.5 815.5,3010.5 845.5,3086.5 938.5,3083.5 "/>
<polygon class="st1" points="175.5,2039.5 338.5,2061.5 347.7,2435.5 242.5,2464.5 256.5,2499.5 242.5,2535.5 343.5,2565.5 
	331.5,2939.5 168.5,2959.5 102.5,3064.5 409.5,3016.2 418.5,1986.5 108.5,1933.5 "/>
<polygon class="st1" points="178.5,2899.5 295.5,2885.5 291.5,2638.5 "/>
<polygon class="st1" points="592.5,2638.5 588.5,2885.5 705.5,2899.5 "/>
<polygon class="st1" points="300.5,2351.5 300.5,2104.2 182.5,2091.5 "/>
<polygon class="st1" points="392.7,1746 357.5,1900.5 418.5,1919.3 420.8,1746 420.8,1746 422.5,1615.5 392.8,1746 "/>
<polygon class="st1" points="491.9,1746 462.7,1615.5 463.9,1746 463.9,1746 465.6,1919.3 526.5,1900.5 "/>
<polygon class="st1" points="705.5,2096.5 584.5,2104.5 576.4,2351.5 "/>
<polygon class="st1" points="773.8,1933.5 466.8,1985.4 475.5,3013.5 785.6,3064.5 716.5,2958.5 555.5,2938.5 540.5,2564.5 
	644.5,2534.5 622.1,2499 640.5,2463.5 537.9,2435.5 545.5,2059.5 707.5,2037.2 "/>
<polygon class="st1" points="1000.5,1804.5 930.5,1912.5 838.4,1912.5 809.5,1986.5 946.5,2003.5 1057.5,1808.5 "/>
<path class="st1" d="M1423.5,1924.5l372,206.9l229-238.9l-152.7-303.1l-305.3,4.1L1423.5,1924.5z M1589,1746l30.5-64.5l198-9
	l36.9,73.5l0,0l65.1,129.5l-158,156l-241-141L1589,1746z"/>
<polygon class="st1" points="1841.5,1857.5 1817.5,1807.5 1806,1816.1 1750.5,1857.5 1697.5,1839.5 1720,1793.7 1800.5,1782.5 
	1784.2,1746 1784.2,1746 1779.5,1735.5 1666.5,1741.5 1664.5,1746 1664.5,1746 1612.9,1860.4 1746.5,1946.5 "/>
<polygon class="st1" points="188.5,3227.5 138.8,3235 190.9,3235 "/>
<polygon class="st1" points="274.5,3101.5 0,3150.7 0,3224.8 219.1,3189.2 233.4,3235 312.7,3235 "/>
<polygon class="st1" points="409,3235 409.5,3083.5 348.3,3101.5 376.5,3235 "/>
<polygon class="st1" points="508.1,3235 536.4,3101.5 476.9,3083.5 476.4,3235 "/>
<polygon class="st1" points="697.5,3225.5 694.4,3235 758.1,3235 "/>
<polygon class="st1" points="947.1,3161.7 612,3101.5 573.8,3235 652,3235 667.5,3184.5 896.4,3225.5 900.7,3235 989.5,3235 "/>
<polygon class="st1" points="0,2139.6 68.5,2132.5 175.5,2353.5 44.5,2369.5 106.5,2498.5 40.5,2629.5 171.5,2647.5 62.5,2866.5 
	0,2858.8 0,2934.8 106.5,2947.4 275.5,2591.5 154.5,2569.5 190.7,2498.5 155.5,2427.5 278.5,2406.5 113.5,2050.5 0,2062.8 "/>
<polygon class="st1" points="444.5,1465.5 335.9,1481.5 250.9,1746 250.9,1746 229.5,1812.5 0,1769.6 0,1843.6 283.5,1899.5 
	329.2,1746 329.2,1746 383.5,1563.5 442.5,1540.1 500.5,1562.5 555.7,1746 555.7,1746 601.5,1898.5 935.5,1833.5 981.5,1751.5 
	1140.5,1765.5 963.5,2071.5 770.5,2049.5 605.5,2408.5 728.5,2428.5 692.5,2500.5 732.5,2571.5 610.5,2591.5 779.5,2945.5 
	972.5,2921.5 1152.4,3225.5 1069.4,3235 1242.4,3235 1026.5,2841.5 823.5,2863.5 714.5,2645.5 844.5,2625.5 779.5,2497.5 
	840.5,2368.5 710.5,2350.5 815.5,2131.5 1020.5,2152.5 1236.7,1746 1236.7,1746 1262.5,1697.5 931.5,1662.5 895.6,1746 895.6,1746 
	885.5,1769.5 655.5,1812.5 634.4,1746 634.4,1746 550.4,1481.5 "/>
<polygon class="st1" points="41.5,2187.5 0,2191.3 0,2271.1 6.5,2270.5 31.5,2318.5 108.5,2299.5 "/>
<polygon class="st1" points="106.5,2690.5 27.5,2678.5 0.5,2727.5 0,2727.4 0,2806.8 35.5,2810.5 "/>
<polygon class="st1" points="0,1303.7 226.5,1506.5 286.5,1410.5 441.5,1383.5 598.5,1410.5 658.5,1505.5 954.5,1240.5 
	1477.5,1403.5 1304.3,1746 1304.3,1746 1070.5,2208.5 843.5,2187.5 775.5,2298.5 853.5,2317.5 878.5,2268.5 1109.5,2288.5 
	1263.5,2020.5 1480.5,2140.5 1335.5,2492.5 1487.5,2846.5 1271.5,2968.5 1115.5,2703.5 883.5,2725.5 858.5,2678.5 780.5,2696.5 
	851.5,2809.5 1078.5,2785.5 1309.8,3235 1406.7,3235 1311.5,3042.5 1592.5,2878.5 1433.5,2491.5 1583.5,2107.5 1301.5,1945.5 
	1397.1,1746 1397.1,1746 1586.5,1350.5 929.6,1147.5 669.5,1388.5 632.5,1327.5 439.5,1304.5 252.5,1327.5 213.5,1391.5 0,1189.6 
	"/>
<polygon class="st1" points="1510.8,3235 1599.4,3235 1530.5,3096.5 1770.5,2952.5 1931.5,3106.5 1868.8,3235 1964.4,3235 
	2035.5,3088.5 1801.5,2851.5 1434.5,3063.5 "/>
<polygon class="st1" points="1799.4,3235 1806,3220.9 1815.5,3201.5 1806,3200.6 1735,3194 1707.5,3145.5 1761.5,3127 1806,3161.4 
	1828,3178.4 1852.3,3127 1806,3082.7 1758.1,3036.8 1622.5,3126.5 1674.9,3235 "/>
<polygon class="st1" points="1846.4,4000 1928.9,4000 1968.5,3916.5 2708,3917.3 2708,3844.5 1923.5,3844.5 "/>
<polygon class="st1" points="1195.5,3989.5 1045.8,3618.5 442.5,3815.6 0,3671.2 0,3768.8 442.5,3908.7 995.5,3732.5 1100.2,4000 
	1474.5,4000 1471.3,3994 "/>
<polygon class="st1" points="1381.5,3738.5 1240.5,3361.5 1032.5,3380.5 1247.5,3940.5 1524.5,3948.5 1548.9,4000 1623.3,4000 
	1569.5,3884.5 1296.5,3881.5 1122.5,3432.5 1184.5,3426.5 1340.5,3809.5 1551.5,3823.5 1632.5,3723.5 1621.5,3496.5 1658.5,3455.5 
	1715.5,3455.5 1676.5,3494.5 1682.5,3797.5 1630.5,3897.5 1660.5,3964.5 1740.5,3809.5 1741.5,3496.5 1838.5,3432.5 1623.5,3428.5 
	1550.7,3495.5 1568.5,3680.5 1519.3,3747.5 "/>
<polygon class="st1" points="1943,3426.5 1809.5,3493.5 1818.5,3752 1697.4,4000 1787.4,4000 1877.5,3807.5 1881.5,3494.5 
	2020.5,3417.5 2118.4,3235 2036.9,3235 "/>
<polygon class="st1" points="2108.5,3410.5 2089.9,3487.5 2101.8,3558.5 2197.5,3558.5 2205.5,3487.5 2158.5,3488.5 2185.5,3413.5 
	2272.4,3235 2206.4,3235 "/>
<polygon class="st1" points="2678.5,3488.5 2688.4,3558.5 2708,3557.9 2708,3489.2 "/>
<polygon class="st1" points="2677.4,3235 2612.2,3235 2697.5,3409.5 2708,3439.5 2708,3290.8 "/>
<polygon class="st1" points="2021.5,3492.5 1951.3,3492.5 1957.5,3772.5 2339.5,3762.5 2348.5,3342.5 2539.5,3345.5 2546.5,3762.5 
	2708,3766.8 2708,3611.7 2690.5,3611.5 2687.5,3669.5 2630.5,3671.5 2607.5,3345.5 2582.5,3285.5 2451.5,3265.5 2302.5,3284.5 
	2278.5,3345.5 2255.5,3670.5 2200.5,3669.5 2194.5,3611.5 2101.5,3611.5 2096.5,3675.5 2024.5,3678.5 "/>
<path class="st1" d="M2499.5,3764.1v-394.5h-109.7v394.5H2499.5z M2425.9,3407.5h37.6v316.2h-37.6V3407.5z"/>
<polygon class="st1" points="2026.3,4000 2084.8,4000 2028.5,3995.5 "/>
<polygon class="st1" points="261.5,3451.5 190.9,3235 138.8,3235 28.5,3251.5 0,3325.8 0,3336.8 121.5,3317.5 227.5,3464.5 "/>
<polygon class="st1" points="109.5,3351.5 0,3373.7 0,3431.7 0.5,3430.5 151.5,3410.5 "/>
<polygon class="st1" points="780.5,3355.5 738.5,3412.5 889.5,3435.5 916.5,3500.5 442.5,3654.5 0,3511.1 0,3608.7 443.5,3747.5 
	1019.5,3566.5 930.5,3386.5 "/>
<polygon class="st1" points="66.5,3494.5 80.5,3450.5 18.5,3454.5 8.5,3480.5 "/>
<polygon class="st1" points="211.5,3504.5 103.5,3445.5 83.5,3500.5 442.5,3605.7 800.5,3501.5 780,3445.5 672.5,3504.5 
	444.5,3534.5 "/>
<polygon class="st1" points="233.4,3235 309.5,3479.5 408.9,3494.5 408.9,3445.5 371.5,3440.5 312.7,3235 "/>
<polygon class="st1" points="408.5,3386.5 409,3235 376.5,3235 "/>
<polygon class="st1" points="476,3386.5 508.1,3235 476.4,3235 "/>
<polygon class="st1" points="758.1,3235 694.4,3235 624.5,3451.5 658.5,3462.5 764.5,3316.5 890.5,3336.5 857.5,3250.5 "/>
<polygon class="st1" points="994.5,3243.5 989.5,3235 900.7,3235 944.5,3331.5 1274.5,3293.5 1242.4,3235 1069.4,3235 "/>
<polygon class="st1" points="515.5,3438.5 476,3444.4 476,3496.5 576.4,3481.7 652,3235 573.8,3235 "/>
<polygon class="st1" points="867.5,3453.5 803.5,3450.5 816.5,3495.5 876.9,3481.7 "/>
<path class="st1" d="M1397.5,3405.5l-53.9,91l62.9,168l68,12l38-41l-21-229l-84.8-171.5h-96.9L1397.5,3405.5z M1428.9,3450.5
	l20.4-1.2l19.2,151.2l-38,22l-39-113L1428.9,3450.5z"/>
<polygon class="st1" points="1831.5,3311.5 1633.5,3303.5 1599.4,3235 1510.8,3235 1579.5,3389.5 1887.5,3393.5 1964.4,3235 
	1868.8,3235 "/>
<polygon class="st1" points="1679.5,3244.5 1792.5,3249.5 1799.4,3235 1674.9,3235 "/>
<polygon class="st1" points="950.7,3801.5 881.5,3822.5 938.8,4000 1024.1,4000 "/>
<polygon class="st1" points="0,3830.4 2.5,3822.5 0,3821.8 "/>
<polygon class="st1" points="26.9,4000 120.7,4000 127.6,3963 246.9,4000 392.1,4000 393.5,3970.5 67.5,3864.5 "/>
<polygon class="st1" points="752.7,3963 759.6,4000 853.4,4000 812.8,3864.5 486.8,3970.5 488.2,4000 633.4,4000 "/>
</svg>
