<?xml version="1.0" encoding="UTF-8"?><svg id="a" xmlns="http://www.w3.org/2000/svg" viewBox="0 0 920 140"><defs><style>.b{fill:#ceb272;}.c{fill:#441504;}.d{fill:#842908;}</style></defs><path class="d" d="M126.03,140H0V13.97C0,6.26,6.26,0,13.97,0h126.03V126.03c0,7.72-6.26,13.97-13.97,13.97Z"/><path class="c" d="M438.03,140h-126.03V13.97c0-7.72,6.26-13.97,13.97-13.97h126.03V126.03c0,7.72-6.26,13.97-13.97,13.97Z"/><circle class="d" cx="226" cy="70" r="70"/><circle class="c" cx="538" cy="70" r="70"/><path class="b" d="M906.03,140h-282.03V13.97c0-7.72,6.26-13.97,13.97-13.97h282.03V126.03c0,7.72-6.26,13.97-13.97,13.97Z"/></svg>