<svg id="Layer_1" data-name="Layer 1" xmlns="http://www.w3.org/2000/svg" viewBox="0 0 845.84 845.84"><defs><style>.cls-1{fill:#231f20;}.cls-2{fill:#a30d11;}.cls-3{fill:#504a4c;}</style></defs><rect class="cls-1" width="845.84" height="845.84" rx="422.92"/><path class="cls-2" d="M158.52,225.55a34.94,34.94,0,0,0-3.93-5.4c-.33,2.83-.89,4.48-1.66,5-1.33.89-3-.37-5.23-3.94s-4.62-9.13-7.45-17.08-4.31-13.86-4.19-17.22A38.57,38.57,0,0,0,135,201.36c1.66,7.31,2.46,10.85,4,17.73,2.11,9.26,2.61,13.86,1.74,14.47-.44.31-1.23-.43-2.4-2.26-.85-1.33-2-3.41-3.56-6.31a46.34,46.34,0,0,0,4.47,19l22.26-12.7A52.23,52.23,0,0,0,158.52,225.55Z" transform="translate(-9.08 -9.08)"/><path class="cls-2" d="M114.16,251.79a34.76,34.76,0,0,0-4.36-5c-.1,2.85-.51,4.54-1.24,5.13-1.25,1-3.06-.09-5.53-3.45s-5.36-8.68-8.84-16.35-5.43-13.42-5.59-16.79a38.93,38.93,0,0,0,.13,14.49c2.26,7.13,3.35,10.59,5.43,17.31,2.87,9,3.75,13.57,2.93,14.26-.41.34-1.26-.32-2.58-2-1-1.25-2.3-3.21-4.07-6a46.1,46.1,0,0,0,6,18.55l21.13-14.65A50.17,50.17,0,0,0,114.16,251.79Z" transform="translate(-9.08 -9.08)"/><path class="cls-2" d="M203.16,204.11a35.87,35.87,0,0,0-3.48-5.72c-.56,2.79-1.25,4.39-2.06,4.84-1.39.79-3-.62-4.9-4.37s-3.88-9.5-6.06-17.67-3.19-14.18-2.81-17.52a38.71,38.71,0,0,0-2.2,14.3c1.07,7.43,1.58,11,2.55,18,1.37,9.42,1.51,14,.59,14.58-.47.27-1.19-.54-2.22-2.47-.74-1.39-1.75-3.57-3-6.59a46.5,46.5,0,0,0,2.94,19.34l23.19-10.73A52.36,52.36,0,0,0,203.16,204.11Z" transform="translate(-9.08 -9.08)"/><path class="cls-2" d="M704.12,225.55a36.31,36.31,0,0,1,3.93-5.4c.34,2.83.89,4.48,1.67,5,1.32.89,3-.37,5.22-3.94s4.63-9.13,7.46-17.08,4.3-13.86,4.19-17.22a38.76,38.76,0,0,1,1,14.44c-1.66,7.31-2.45,10.85-4,17.73-2.11,9.26-2.62,13.86-1.75,14.47.44.31,1.23-.43,2.41-2.26.85-1.33,2-3.41,3.56-6.31a46.34,46.34,0,0,1-4.47,19l-22.27-12.7A54,54,0,0,1,704.12,225.55Z" transform="translate(-9.08 -9.08)"/><path class="cls-2" d="M748.48,251.79a34.76,34.76,0,0,1,4.36-5c.1,2.85.52,4.54,1.24,5.13,1.25,1,3.06-.09,5.54-3.45s5.36-8.68,8.83-16.35,5.44-13.42,5.6-16.79a38.71,38.71,0,0,1-.14,14.49c-2.26,7.13-3.34,10.59-5.42,17.31-2.87,9-3.76,13.57-2.94,14.26.41.34,1.26-.32,2.58-2,1-1.25,2.3-3.21,4.07-6-.94,7.47-3,13.61-6,18.55l-21.13-14.65A51.66,51.66,0,0,1,748.48,251.79Z" transform="translate(-9.08 -9.08)"/><path class="cls-2" d="M659.48,204.11a35.2,35.2,0,0,1,3.49-5.72c.56,2.79,1.24,4.39,2,4.84,1.4.79,3-.62,4.9-4.37s3.88-9.5,6.07-17.67,3.19-14.18,2.8-17.52A38.5,38.5,0,0,1,681,178c-1.07,7.43-1.58,11-2.55,18-1.36,9.42-1.5,14-.58,14.58.46.27,1.19-.54,2.21-2.47.74-1.39,1.75-3.57,3-6.59a46.5,46.5,0,0,1-2.94,19.34L657,210.11A52.36,52.36,0,0,1,659.48,204.11Z" transform="translate(-9.08 -9.08)"/><path class="cls-3" d="M664.73,319.12c-25.1,48-57.32,109.54-89.85,171.63a6.75,6.75,0,0,1-2.48,5.42,10.22,10.22,0,0,0-.88,1l-2.58,4.91a24.73,24.73,0,0,0-.69,8.42,51.29,51.29,0,0,0,1.2,7.88q44-84,102.16-195.16a12.51,12.51,0,0,0,13.64-6.6L723.42,244l-22.26-12.7L663,303.91A13.64,13.64,0,0,0,664.73,319.12Zm28.45-68.4,8.41-2.31-2.67-8.62A3.06,3.06,0,0,1,700.8,236a2.88,2.88,0,0,1,3.66,2l2.76,8.94,8.72-2.39a2.91,2.91,0,0,1,3.56,2.16,3,3,0,0,1-2.08,3.7L709,252.65l2.67,8.62a3.06,3.06,0,0,1-1.88,3.81,2.81,2.81,0,0,1-2.29-.22,3,3,0,0,1-1.37-1.73l-2.76-8.94-8.72,2.39a2.83,2.83,0,0,1-2.14-.28,3.07,3.07,0,0,1,.66-5.58Zm-12.86,24.46,8.41-2.3-2.67-8.62a3.06,3.06,0,0,1,1.88-3.81,2.89,2.89,0,0,1,3.66,1.95l2.76,8.94,8.72-2.39a2.89,2.89,0,0,1,3.55,2.16,3,3,0,0,1-2.07,3.7l-8.41,2.3,2.67,8.63a3.06,3.06,0,0,1-1.88,3.81,2.77,2.77,0,0,1-2.29-.23,3,3,0,0,1-1.37-1.72l-2.77-8.94-8.71,2.39a2.83,2.83,0,0,1-2.14-.28,3,3,0,0,1-1.42-1.88A3.05,3.05,0,0,1,680.32,275.18Zm-12.87,24.47,8.41-2.3-2.66-8.62a3.05,3.05,0,0,1,1.87-3.82,2.88,2.88,0,0,1,3.66,2l2.77,8.94,8.72-2.39a2.89,2.89,0,0,1,3.55,2.16,3,3,0,0,1-2.07,3.7l-8.41,2.3L686,310.2a3.05,3.05,0,0,1-1.87,3.82,2.8,2.8,0,0,1-2.29-.23,3,3,0,0,1-1.38-1.73l-2.76-8.93-8.72,2.38a2.75,2.75,0,0,1-2.13-.27,3,3,0,0,1-1.42-1.89A3,3,0,0,1,667.45,299.65Z" transform="translate(-9.08 -9.08)"/><path class="cls-3" d="M415.55,735.32c-.37.91-.66,1.86-1,2.73.31.27.46.53.61.53a18.92,18.92,0,0,1,6.51,1l-4.05-9.41C417,731.86,416.24,733.58,415.55,735.32Z" transform="translate(-9.08 -9.08)"/><path class="cls-3" d="M447.36,731.1c-.45-1.09-.92-2.18-1.39-3.26q-3,7-5.58,13a22.78,22.78,0,0,1,9.69-2.33C449.14,735.93,448.34,733.47,447.36,731.1Z" transform="translate(-9.08 -9.08)"/><path class="cls-3" d="M433.31,757.21l-1.79,4.1c0,3.83-.36,7.67-.64,11.52l.44-.42,2.53,2.41C433.53,768.94,433.06,763,433.31,757.21Z" transform="translate(-9.08 -9.08)"/><path class="cls-3" d="M745.06,257.27l-44,68.91a13.66,13.66,0,0,0,.46,15.3c-34.53,54.32-80.75,127-125.33,196.93,1.17,3.19,2.35,6.38,3.43,9.59Q633.83,462.89,708,346.18a12.42,12.42,0,0,0,14.13-5.36l44-68.91Zm-15,66.87-8.57,1.54,1.95,8.83a3,3,0,0,1-2.19,3.63,2.83,2.83,0,0,1-2.26-.43,3,3,0,0,1-1.22-1.85l-2-9.15-8.88,1.6a2.82,2.82,0,0,1-2.11-.47,3.07,3.07,0,0,1,1.12-5.51l8.57-1.54L712.45,312a3,3,0,0,1,2.19-3.63,2.91,2.91,0,0,1,3.48,2.28l2,9.15,8.88-1.6a2.92,2.92,0,0,1,3.36,2.47A3,3,0,0,1,730,324.14Zm14.84-23.23-8.57,1.54,1.94,8.83a3,3,0,0,1-2.18,3.63,2.79,2.79,0,0,1-2.27-.43,3,3,0,0,1-1.22-1.84l-2-9.16-8.88,1.6a2.79,2.79,0,0,1-2.1-.46,3.07,3.07,0,0,1,1.11-5.51l8.57-1.54-1.94-8.83a3,3,0,0,1,2.18-3.63,2.9,2.9,0,0,1,3.49,2.27l2,9.16,8.89-1.6a2.92,2.92,0,0,1,3.36,2.47A3,3,0,0,1,744.85,300.91Zm14.83-23.22-8.57,1.54,1.95,8.83a3,3,0,0,1-2.19,3.63,2.83,2.83,0,0,1-2.26-.43,3,3,0,0,1-1.22-1.85l-2-9.15-8.88,1.6a2.82,2.82,0,0,1-2.11-.47,3.07,3.07,0,0,1,1.12-5.5l8.57-1.55-2-8.83a3,3,0,0,1,2.19-3.63,2.91,2.91,0,0,1,3.48,2.28l2,9.15,8.88-1.6a2.92,2.92,0,0,1,3.36,2.47A3,3,0,0,1,759.68,277.69Z" transform="translate(-9.08 -9.08)"/><path class="cls-3" d="M578,417.79l1.11,2.94c.84,2.19.18,3.72-1.38,5.34-8.62,9-8.77,9.25-3,19.75q27.4-64.53,60.06-141.57a12.62,12.62,0,0,0,13.07-7.77l32.26-75.64L657,210.11l-32.26,75.64a13.61,13.61,0,0,0,2.94,15C613.29,334.67,596.14,375.1,578,417.79Zm72.57-187.66,8.19-3-3.34-8.36a3.07,3.07,0,0,1,1.57-4,2.87,2.87,0,0,1,3.8,1.63l3.47,8.67,8.5-3.13a2.87,2.87,0,0,1,3.71,1.84,3.08,3.08,0,0,1-1.77,3.87l-8.2,3,3.34,8.36a3.08,3.08,0,0,1-1.57,4,2.83,2.83,0,0,1-2.3,0,3,3,0,0,1-1.5-1.61L661,232.72l-8.49,3.13a2.76,2.76,0,0,1-2.15-.09A3,3,0,0,1,648.8,234,3.07,3.07,0,0,1,650.58,230.13Zm-10.88,25.5,8.2-3-3.34-8.36a3.08,3.08,0,0,1,1.57-4,2.87,2.87,0,0,1,3.8,1.64l3.47,8.66,8.49-3.13a2.89,2.89,0,0,1,3.72,1.85,3.07,3.07,0,0,1-1.78,3.87l-8.19,3,3.34,8.36a3.07,3.07,0,0,1-1.57,4,2.79,2.79,0,0,1-2.3,0,3,3,0,0,1-1.5-1.6l-3.47-8.67-8.49,3.13a2.83,2.83,0,0,1-2.16-.08,3,3,0,0,1-1.56-1.76A3.08,3.08,0,0,1,639.7,255.63ZM627.06,285a3.07,3.07,0,0,1,1.77-3.87l8.2-3-3.34-8.36a3.07,3.07,0,0,1,1.56-4,2.86,2.86,0,0,1,3.81,1.63l3.46,8.67L651,273a2.87,2.87,0,0,1,3.71,1.84,3.06,3.06,0,0,1-1.77,3.87l-8.2,3,3.35,8.36a3.08,3.08,0,0,1-1.57,4,2.83,2.83,0,0,1-2.3,0,3,3,0,0,1-1.5-1.61l-3.47-8.66-8.5,3.13a2.8,2.8,0,0,1-2.15-.09A3,3,0,0,1,627.06,285Z" transform="translate(-9.08 -9.08)"/><path class="cls-3" d="M287.71,540.35c-45-70.57-91.72-144-126.57-198.87a13.65,13.65,0,0,0,.47-15.3l-44-68.91L96.47,271.91l44,68.91a12.44,12.44,0,0,0,14.14,5.36q75.1,118.14,129.77,203.94C285.46,546.85,286.58,543.6,287.71,540.35ZM114,291.26a2.83,2.83,0,0,1-2.26.43,3,3,0,0,1-2.18-3.63l1.94-8.83L103,277.69a3,3,0,0,1-2.37-3.51,2.92,2.92,0,0,1,3.36-2.47l8.89,1.6,2-9.15a2.92,2.92,0,0,1,3.49-2.28,3,3,0,0,1,2.18,3.63l-1.94,8.83,8.57,1.55a3,3,0,0,1,2.37,3.5,3,3,0,0,1-1.26,2,2.8,2.8,0,0,1-2.1.47l-8.89-1.6-2,9.15A3.07,3.07,0,0,1,114,291.26Zm14.84,23.22a2.76,2.76,0,0,1-2.26.43,3,3,0,0,1-2.19-3.63l2-8.83-8.57-1.54a3,3,0,0,1-2.37-3.5,2.91,2.91,0,0,1,3.36-2.47l8.88,1.6,2-9.16a2.9,2.9,0,0,1,3.48-2.27,3,3,0,0,1,2.19,3.63l-2,8.83,8.57,1.54a3.08,3.08,0,0,1,1.12,5.51,2.82,2.82,0,0,1-2.11.46l-8.88-1.6-2,9.16A3,3,0,0,1,128.87,314.48Zm30.32,11.36a3,3,0,0,1-1.26,2,2.8,2.8,0,0,1-2.1.47l-8.89-1.6-2,9.15a3.06,3.06,0,0,1-1.22,1.85,2.86,2.86,0,0,1-2.27.43,3,3,0,0,1-2.18-3.63l1.94-8.83-8.57-1.54a3,3,0,0,1-2.37-3.51,2.92,2.92,0,0,1,3.36-2.47l8.89,1.6,2-9.15a2.92,2.92,0,0,1,3.49-2.28,3,3,0,0,1,2.18,3.63l-1.94,8.83,8.57,1.54A3,3,0,0,1,159.19,325.84Z" transform="translate(-9.08 -9.08)"/><path class="cls-3" d="M191,323.21q59,112.73,103.39,197.5a50.35,50.35,0,0,0,1.9-11.5c0-.69.06-1.38,0-2.06-35.4-67.55-71.14-135.83-98.44-188a13.64,13.64,0,0,0,1.72-15.21l-38.16-72.6L139.23,244l38.16,72.6A12.52,12.52,0,0,0,191,323.21Zm-38.19-58.13a3,3,0,0,1-1.87-3.81l2.66-8.62-8.41-2.31a3,3,0,0,1-2.07-3.7,2.9,2.9,0,0,1,3.55-2.16l8.72,2.39,2.76-8.94a2.89,2.89,0,0,1,3.67-2,3,3,0,0,1,1.87,3.81l-2.66,8.62,8.41,2.31a3,3,0,0,1,2.07,3.7,3,3,0,0,1-1.42,1.88,2.8,2.8,0,0,1-2.13.28l-8.72-2.39-2.77,8.94a3,3,0,0,1-1.37,1.73A2.8,2.8,0,0,1,152.84,265.08Zm12.87,24.47a3.06,3.06,0,0,1-1.88-3.81l2.67-8.63-8.41-2.3a3,3,0,0,1-2.08-3.7,2.9,2.9,0,0,1,3.56-2.16l8.71,2.39,2.77-8.94a2.88,2.88,0,0,1,3.66-1.95,3,3,0,0,1,1.87,3.81l-2.66,8.62,8.41,2.3a3.05,3.05,0,0,1,2.07,3.71,3,3,0,0,1-1.41,1.88,2.83,2.83,0,0,1-2.14.28l-8.72-2.39-2.76,8.94a3.05,3.05,0,0,1-1.37,1.72A2.77,2.77,0,0,1,165.71,289.55Zm5.24,9.73a3,3,0,0,1-2.08-3.7,2.9,2.9,0,0,1,3.56-2.16l8.72,2.39,2.76-8.94a2.88,2.88,0,0,1,3.66-2,3.07,3.07,0,0,1,1.88,3.82l-2.67,8.62,8.41,2.3a3.08,3.08,0,0,1,.66,5.59,2.78,2.78,0,0,1-2.14.27L185,303.13l-2.76,8.93a3,3,0,0,1-1.37,1.73,2.81,2.81,0,0,1-2.29.23,3.07,3.07,0,0,1-1.88-3.82l2.67-8.62Z" transform="translate(-9.08 -9.08)"/><path class="cls-3" d="M227.79,304.25Q261,382.63,288.79,448l.12-.34a18.14,18.14,0,0,1,1.4-2.65,56.21,56.21,0,0,0,3.24-6.23l-4.28-10.1-1-1c-2.47-2.54-3.46-4.75-2.71-7.7-18.47-43.51-36-84.75-50.59-119.24a13.62,13.62,0,0,0,2.93-15l-32.26-75.64-23.18,10.73,32.25,75.64A12.63,12.63,0,0,0,227.79,304.25ZM194.36,243a3.09,3.09,0,0,1-1.57-4l3.35-8.36-8.2-3a3.06,3.06,0,0,1-1.77-3.87,2.87,2.87,0,0,1,3.71-1.84l8.5,3.13,3.46-8.67a2.88,2.88,0,0,1,3.81-1.63,3.07,3.07,0,0,1,1.56,4l-3.34,8.36,8.2,3a3.07,3.07,0,0,1,1.77,3.87,3,3,0,0,1-1.56,1.76,2.76,2.76,0,0,1-2.15.09l-8.5-3.13-3.47,8.66a2.9,2.9,0,0,1-1.5,1.61A2.83,2.83,0,0,1,194.36,243Zm10.87,25.49a3.09,3.09,0,0,1-1.57-4l3.35-8.36-8.2-3A3.07,3.07,0,0,1,197,249.3a2.88,2.88,0,0,1,3.71-1.85l8.5,3.13,3.46-8.66a2.88,2.88,0,0,1,3.81-1.64,3.1,3.1,0,0,1,1.57,4l-3.35,8.36,8.2,3a3.07,3.07,0,0,1,1.77,3.87,3,3,0,0,1-1.56,1.76,2.8,2.8,0,0,1-2.15.08l-8.5-3.13L209,266.88a2.91,2.91,0,0,1-1.5,1.6A2.79,2.79,0,0,1,205.23,268.51Zm4.45,10.15a3.07,3.07,0,0,1-1.77-3.87,2.87,2.87,0,0,1,3.71-1.84l8.5,3.13,3.47-8.67a2.85,2.85,0,0,1,3.8-1.63,3.09,3.09,0,0,1,1.57,4l-3.35,8.36,8.2,3a3.06,3.06,0,0,1,1.77,3.87,2.94,2.94,0,0,1-1.56,1.76,2.8,2.8,0,0,1-2.15.09l-8.5-3.13-3.46,8.66A3,3,0,0,1,218.4,294a2.83,2.83,0,0,1-2.3,0,3.08,3.08,0,0,1-1.56-4l3.34-8.36Z" transform="translate(-9.08 -9.08)"/><path class="cls-3" d="M577,330.31c2.25,4,4.51,8,6.63,12,1.77,3.34,2.12,6.44-.75,9.72-2.72,3.11-4.8,6.84-7.13,10.26,8.31,11.26,8.61,24.93-3.92,39,2.5,6.66,4.88,13.07,7.32,19.47.84,2.19.18,3.72-1.38,5.34-8.83,9.2-8.79,9.23-2.53,20.51,4.66,8.39,4.3,12.75-1.64,20.06-4.89,6-5.27,9.86-1.67,16.83.5,1,1,2,1.57,2.94,1.87,3.51,2.32,6.5-1.07,9.76-3.87,3.72-4.51,9-4.15,14.32.65,9.79,4.5,18.61,7.8,27.59,4,10.89,8.17,21.76,8,33.69a61.49,61.49,0,0,1-1.35,11,12.84,12.84,0,0,1-6.3,9.2c-6.29,3.66-9.82,10.09-13.95,16-3.41,4.89-4.25,9-1,14.38,2.17,3.62,3,8.11,4.53,12.17a5.48,5.48,0,0,1-1.19,6.07c-3.21,3.75-6.21,7.72-9.27,11.62-1.58,2-1.66,4-.53,6.5,2.91,6.35,5.49,12.87,8.28,19.29,1.06,2.45.33,4.35-1.37,6-2.11,2.07-4.38,4-6.43,6.11-3.45,3.59-3.45,4.92-1.21,9.39,1.68,3.37,3,6.92,4.53,10.37a5.54,5.54,0,0,1-1.13,6.67c-9.24,9.84-18.39,19.77-27.57,29.66-.52.56-1.08,1.07-1.84,1.83,6,8.5,13,15.57,22.51,19.42,2.68,1.09,4.1,2.68,4.13,5.53q.09,8,0,16.08c-.05,2.82-1.6,4.25-4.22,5.05a209.72,209.72,0,0,1-43.08,8.16A158,158,0,0,1,468,801.18a7.1,7.1,0,0,1-5.66-3.79c-1.54-2.82-3.28-5.52-4.76-8.38a7.25,7.25,0,0,0-6.73-4.27c-3.86-.16-7.7-.78-11.54-1.27-3-.39-5.13-2-5.25-5.34-.32-8.25-1.29-16.61-.44-24.74,1.08-10.4,6-14.24,16.51-14.88-.94-2.58-1.74-5-2.72-7.41-4-9.65-8.9-18.92-10.75-29.43-1.51-8.6-.1-16.21,6.22-22.49a5.37,5.37,0,0,0,1.11-4c-.93-6.53-2-13.05-3.29-19.51a15.69,15.69,0,0,0-6-10,3.58,3.58,0,0,0-4.71-.06c-3.35,2.37-5.07,5.87-5.89,9.72-1.5,7-2.62,14-3.81,21.11a2.57,2.57,0,0,0,.68,2c9.28,8.38,9.07,18.83,5.41,29.57-3.16,9.27-7.16,18.23-10.77,27.33-.37.91-.66,1.86-1,2.73.31.27.46.53.62.53,10.7-.13,15.28,6.3,16.13,16.57.63,7.62-.42,15.39-.8,23.09-.16,3.23-2.21,4.78-5,5.19a115.43,115.43,0,0,1-11.85,1.32,7,7,0,0,0-6.5,4.08c-1.5,2.85-3.15,5.6-4.69,8.43a7.35,7.35,0,0,1-6,3.91c-28,4.17-55.32.72-82.36-7-2.58-.74-4.32-2-4.33-4.89,0-5.8,0-11.6.12-17.4,0-2.05,1.1-3.32,3.13-4.1,9.72-3.76,16.91-10.85,23.21-19.61-3.2-3.17-6.5-6.18-9.51-9.47-6.83-7.45-13.52-15-20.28-22.57a4.71,4.71,0,0,1-1-5.52c1.81-4.05,3.34-8.27,5.45-12.14,1.42-2.6,1.32-4.67-.47-6.69s-3.64-3.8-5.56-5.59c-4.83-4.46-5.11-5.18-2.51-11.47,2.34-5.64,5.1-11.1,7.37-16.78a6.1,6.1,0,0,0-.32-4.86c-3-4.36-6.31-8.5-9.7-12.54a5.64,5.64,0,0,1-1.12-6.4q3.47-8.49,6.72-17.07a4.06,4.06,0,0,0,.15-3,188.37,188.37,0,0,0-10.29-15.84c-2.22-2.9-5.57-4.84-8.26-7.38-1.51-1.43-3.26-3-4-4.88-4.39-11.72-2.66-23.39,1.05-34.85,3.3-10.18,7.11-20.17,10.35-30.37a49.63,49.63,0,0,0,1.92-11.55c.39-5.73-1.29-10.9-5.5-14.82a3.72,3.72,0,0,1-1-4.74c1.08-2.44,2.25-4.83,3.44-7.21,2.95-5.88,2.6-9.69-1.51-14.81-2.91-3.62-6.23-7.12-5.28-12.4a47.07,47.07,0,0,1,2.46-7.54,18.14,18.14,0,0,1,1.4-2.65c5.31-9.4,5.52-9.61-2-17.34-2.9-3-3.78-5.49-2.19-9.28,2.31-5.52,4.43-11.12,6.74-17C280.88,383.7,280,375.32,289,362.49c-2.63-3.86-5.16-7.89-8-11.66-1.6-2.12-2-4.11-.83-6.42,2.39-4.73,4.84-9.44,7.38-14.37-3.64-3.59-6.66-7.76-7.78-13.31-1.7-8.45-.08-16.28,3.67-23.69,1.38-2.71,1.23-4.81-.52-7-4-5-8.1-9.88-11.92-15a6.47,6.47,0,0,1-1-4.7c2.37-9.74,5.13-19.39,7.5-29.13a17.55,17.55,0,0,0-4-16.22,4.14,4.14,0,0,1-.86-3.17c4.5-17.51,8.94-35,13.78-52.45,3.26-11.69,8-22.7,16.08-31.84,3.68-4.17,7.27-5.13,13-2.49,2.92,1.34,5.52,3.42,8.29,5.12a77.69,77.69,0,0,0,7.83,4.63c3.95,1.84,7.78.8,11.4-1.37a50.92,50.92,0,0,1,5.4-3c3.76-1.67,6.92-.09,9.82,2.34,2.5,2.11,4.87,4.41,7.47,6.39a11.56,11.56,0,0,0,12.21,1.68c.49-.21,1-.34,1.54-.51,9.27-3.06,10.9-2.49,16.58,5.58a17.62,17.62,0,0,0,4.09,4.7c1.34.89,3.65,1.5,5,.91,8.2-3.69,15.86-2.43,23,2.54,3.06,2.14,5.28,2.1,8.32,0,7.16-4.83,14.78-6.22,23-2.69,1.46.63,4.1-.16,5.48-1.26,2-1.58,3.39-4,4.93-6.14,3.87-5.44,6.9-6.48,13.11-4.44a53.74,53.74,0,0,0,6.8,2.08c3.72.71,7-.67,9.92-3,2.55-2.06,5-4.28,7.47-6.41,3.5-3,7.26-3.05,11.14-1,1.34.72,2.6,1.58,3.87,2.43a10.2,10.2,0,0,0,11.05.82c3.81-2,7.39-4.52,11.08-6.79a39.71,39.71,0,0,1,5.05-3c5.54-2.32,8.79-1.37,12.89,3,8.43,9.07,12.8,20.39,16.09,32.15,4.37,15.57,8.15,31.32,12.18,47a3.45,3.45,0,0,0,.17.65c1.76,3.57,1.58,6.44-1.16,9.88-4.21,5.3-3.32,11.79-1.72,18,1.48,5.72,3.21,11.38,4.72,17.09.79,3,1.45,6.07,2,9.14a3.9,3.9,0,0,1-.77,2.65c-3.41,4.46-6.84,8.92-10.44,13.22-3,3.54-3.65,6.58-1.38,11.32,5.25,11,5.73,22.2-2.25,32.46C578.82,328.38,577.88,329.3,577,330.31ZM524.83,602.64a6.44,6.44,0,0,1,1.41-.9c6.1-2.77,12.17-5.63,18.35-8.2,8.39-3.49,17-6.56,24.24-12.36,1.2-.95,2.56-2.46,2.75-3.87,1.32-9.63,1.69-19.38-1.84-28.54-6.57-17-13.36-34-20.61-50.69a52.16,52.16,0,0,0-24.52-26.21c-2.31-1.18-4.38-1.75-7-.32-5.82,3.24-8.18,2.7-12.75-2.18-3,2.22-5.8,4.62-8.88,6.61-11.26,7.26-23.83,10.64-36.67,13.17-25.95,5.11-51.38,2.85-76.3-6.06a64.49,64.49,0,0,1-23.26-13.88c-4.93,5.21-6.72,5.53-12.93,2.27a5.86,5.86,0,0,0-5.79-.12c-12.77,6.1-21.44,16.34-27.06,29.44-5.44,12.67-10.27,25.62-15.7,38.29-4.95,11.53-7.21,23.35-5.67,36a9.24,9.24,0,0,0,4.16,7.06c8.45,6,18.1,9.22,27.48,13.11,5.55,2.29,10.95,5,16.52,7.53-.45,1.22-.62,1.73-.81,2.23-4.85,12.51-4.06,24.78,1.76,36.68,3.88,8,9,14.79,17.38,18.09,5.59,2.21,15.18.24,17.09-5.73-6.89-3.34-15-4.64-19-12.82a45.08,45.08,0,0,1,8.27,4.08c4.06,2.46,8.27,4.32,13.07,4.24,1.93,0,7.18-6.39,6.78-8.31a2.75,2.75,0,0,0-1.13-1.53,16.1,16.1,0,0,0-3.19-1.59c-4.46-1.62-9-3-13.38-4.82-1.57-.65-2.76-2.31-4.12-3.52l.64-1c1.3.32,2.63.56,3.91,1,4.61,1.49,9.2,3,13.8,4.56,3.76,1.24,6.37-.64,8-3.83a88.52,88.52,0,0,0,4.05-9.85c1.59-4.28,1.37-4.78-2.53-7.06a17.93,17.93,0,0,0-2.36-1.07c-4.38-1.79-8.71-.92-13,.46-2.24.73-4.05.45-5.46-1.49-2.57-3.55-2.78-7.44-1.2-11.45,1.5-3.81,4.45-5.6,8.27-6,1.73-.19,3,0,3.46,2.36a5.83,5.83,0,0,0,2.73,3.4,44.41,44.41,0,0,0,7.18,2.91,2.53,2.53,0,0,0,2-.3c8-6,8.29-15.23,1.3-20.48a25.35,25.35,0,0,0-17.38-5A18.78,18.78,0,0,0,362.4,585c-11.78-13.9-21-30.45-40.31-34.28,5.64-3.36,11.3-4.81,17.32-3.5,2.25.49,3.7.09,4.76-2a13.81,13.81,0,0,1,1.36-1.88c7.8-10.55,14.8-21.52,16.57-35.16.28-2.2.5-4.41.75-6.62,4.53,12.58,13.91,19.18,25.26,23,8.68,2.92,17.65,4.87,26.48,7.26,1,.28,2,.6,3,.9a112.5,112.5,0,0,1-42.21,1.79c2.64,12-.44,24,2.69,35.39,14.54-1,23.14,3.3,27.12,13.44C409,593,406.83,599.49,397,607.9c3.31,8.59,3,17.2-.13,25.82-5.3,14.63-15.22,25.56-26.21,35.63a4,4,0,0,1-3.23.52c-4.79-1.26-9.6-2.52-14.26-4.19-4.21-1.51-8.25-3.57-12.47-5.43a36.09,36.09,0,0,0-6.7,26.44c19.51,1.63,38.74,5.94,58.12-.67-1.59,4.07-3.84,6-9.07,7.89a60,60,0,0,1-30,2.43c-6.05-1-12-2.81-18-4.28.34,1.23.68,2.73,1.16,4.18,3.49,10.72,9.51,20,15.18,29.55,3.36,5.65,6.4,11.52,9.77,17.63-9.84,3.19-16.75,9.57-23.58,16.12-5.81,5.55-11.9,10.69-19.6,13.25a3,3,0,0,0-1.6,1.45c-1.22,2.66-.06,8.53,2.17,10.72a7.72,7.72,0,0,0,9,1.7c-2.16-5.89-1.58-11.17,3.15-15.29,2-1.7,4.34-2.81,7.14-1.22-5.82,3.76-7.26,9.05-4.21,15,2.51,4.86,8,6.8,12.54,4.48-2.52-12,1.22-20,10-20.33-1,1.44-2,2.61-2.76,3.88a27.79,27.79,0,0,0-2.13,4.13c-1.76,4.5-1.07,9.29,1.87,11.38,4.52,3.24,9.9,2.74,15.9,4-1.31-3.37-2.27-5.81-3.21-8.26-2-5.15,3.3-12.41,8.69-11.95-4,10.09-2,16.81,6,20.45a18.65,18.65,0,0,0,13.87.55c6.49-2.1,7.93-8.22,9.42-13,6.43-1.49,12.2-2.7,17.88-4.23a5,5,0,0,0,3.08-2.83,38.67,38.67,0,0,0,0-21.2c-.89-3.13-2.73-5.25-5.88-6.06-3.44-.88-6.83-2-10.29-2.77-2.5-.59-3.43-1.9-2.73-4.52.75-2.8,1.26-5.68,2.08-8.46,2.39-8.13,5.35-16.11,7.2-24.36,2.08-9.29,2.51-18.68-3.32-27.13a6.37,6.37,0,0,1-.72-3.85c.61-7.47.86-15,2.22-22.36,1.27-6.85.32-12.13-5.21-16.52-1.92-1.53-3-4.28-4.39-6.48a105,105,0,0,0,56.75-.59c-1.07,5-4.48,7.76-7.42,10.78a8.41,8.41,0,0,0-2.41,7.79c1.2,8.86,2,17.78,2.8,26.7a8.93,8.93,0,0,1-1.19,5.06,27.86,27.86,0,0,0-4.05,14.29c-.23,8,1.45,15.54,3.87,23,2.23,6.89,4.41,13.81,6.32,20.79,1.23,4.48.86,4.84-3.39,6.05-3.42,1-7,1.57-10.24,2.95a8.75,8.75,0,0,0-4.38,4.33c-2.89,7.41-2.74,15.12-.66,22.73a4.59,4.59,0,0,0,2.91,2.59c5.79,1.54,11.65,2.8,18.07,4.29,1.27,4,2.24,9.25,7.15,11.93,4.75,2.59,9.89,3.07,14.67.94a19.23,19.23,0,0,0,8-6.77c2.88-4.5,1.56-9.58-.85-14.3,6.33.2,10.77,7.33,8.46,12.93-.9,2.18-1.5,4.48-2.47,7.43,3.82-.63,6.76-1.08,9.69-1.62,8.19-1.5,10.82-6.67,7.3-14.62a71.75,71.75,0,0,0-4.07-7l.56-.89c2.35,1.53,5.13,2.64,7,4.67,4.36,4.85,3.54,10.84,2.14,16.65,5.17,1.83,10.18.16,12.26-4.58a15.06,15.06,0,0,0,1.24-8.32c-.51-2.58-2.74-4.8-4.22-7.2,2.45-.78,5,.16,7,2.36,3.84,4.21,4.62,9.15,2.23,14.64,3.52,1.3,6.59.87,9.09-1.74,2.77-2.89,2.86-6.64,2.24-10.39a2.89,2.89,0,0,0-1.73-1.71c-8.5-3-14.85-9.25-21.54-15.08-4.92-4.3-10.27-8.07-15.55-11.89-1.61-1.17-3.61-1.74-5.66-2.7,1.7-3.36,3.11-6.49,4.8-9.46,5.08-9,10.49-17.75,15.33-26.86,2.49-4.68,4-9.91,6-14.89l-.82-.53c-8,4.09-16.6,5.4-25.35,5.66s-17.2-.7-25.21-4.52c-2.72-1.3-5.12-3-6.17-6.69,19.64,6.86,38.88,2.39,58.28.75,1-10-1.06-18.71-6.86-26.45-.6.19-1,.3-1.4.45l-23.88,9a5,5,0,0,1-6.06-1.59c-4.62-5.15-9.76-9.84-14-15.3-7.69-9.9-13.69-20.76-13.09-34.14.17-3.73,1.19-7.41,1.82-11.14-8.72-6.48-11.17-13.07-8.28-22.65a21.49,21.49,0,0,1,7.51-10.66c6-4.78,12.8-5.28,20.79-3.94.28-6.14.56-11.9.79-17.66s.42-11.77.64-18a111.18,111.18,0,0,1-41.69-1.62,11.57,11.57,0,0,1,3-1.12c8.43-2.21,17-4,25.28-6.73,10.18-3.3,19.17-8.64,24.27-19.13.7-1.44,1.3-2.93,2-4.5,1,5.17,1.58,10.14,2.84,14.92,3.08,11.63,10.24,20.84,17.21,30.1.48.64,1.78.83,2.71.86,3.3.1,6.66-.33,9.9.14,2.89.42,5.65,1.75,8.47,2.68l-.17,1a39.83,39.83,0,0,0-21.91,12.05c-4.35,4.63-8.28,9.7-12.39,14.59-1.95,2.32-3.87,4.66-6,7.21-3.27-4.51-7.21-7-12.1-7.83-7.6-1.24-14.6.34-20.66,5.34A11.27,11.27,0,0,0,467,597.57c3.53,5.71,5.83,6.36,12.42,2.76,1.71-.94,2.8-3.1,4.23-4.65.58-.64,1.28-1.61,2-1.64a9.13,9.13,0,0,1,8.94,4.83,11.85,11.85,0,0,1-.38,12.09c-2.45,3.63-5.42,2-8.41,1.24-5.14-1.29-10.08-.86-14.44,2.55-.82.63-1.89,2.2-1.64,2.83a159.39,159.39,0,0,0,6.52,14.83c1.12,2.19,3.52,2.84,6,2.05L493,631l7.65-2.47c-.85,4.53-4.13,5.07-6.77,6.14-3.91,1.58-8,2.68-11.91,4.2a5,5,0,0,0-2.74,2.49c-.66,1.88,4.74,8.16,6.77,8.22,4.7.15,8.79-1.7,12.76-4.08,2.72-1.62,5.52-3.1,8.28-4.64l.51,1c-4.12,7.73-12.33,9-19.88,12.63,1.95,1.68,3.37,3.45,5.18,4.38,6.39,3.27,12.67,2.51,18.2-2,10.76-8.73,16.21-20.6,16.55-34.59C527.73,615.89,525.86,609.52,524.83,602.64ZM423.08,227.38l-1.42.78c-1.83-2.36-4.05-4.49-5.4-7.11-3.45-6.7-6.41-13.67-9.8-20.42-1-2-.86-3.43.64-4.69,4.08-3.44,8.2-6.83,12.39-10.12,3.32-2.61,6.77-5,10.54-7.83-3.13-3.38-5.6-6.53-8.52-9.11A18.26,18.26,0,0,0,404,164.71a5.56,5.56,0,0,0-3.11,2q-4.25,6.74-8.09,13.74a29.55,29.55,0,0,0-2.76,23.3c.29,1,.43,2,.64,3l-.92.59c-1.94-2.28-4.29-4.3-5.76-6.87-4.76-8.3-3.36-16.73.82-24.64,2.76-5.23,6.42-9.93,9.83-15.1a5.23,5.23,0,0,0-.74-.8c-6.7-5.26-14.27-6.42-22.34-5.08a3.13,3.13,0,0,0-2.16,1.21c-3.38,6.83-7.47,13.46-9.68,20.7-1.71,5.6-1,12-1.4,18-2.75-1.84-4.39-5.19-6.35-8.38-4.11-6.73-4.18-12.82,1-19.14,3.81-4.66,6.9-10,10.3-15a17.86,17.86,0,0,0-25.43.72c-9.57,10.11-12.49,22.15-8.44,35.85.23.76.45,1.51.85,2.89-5.32-4.11-10.16-7.8-12.6-13.65a8.33,8.33,0,0,1,.13-6.21c2.78-5.16,6.12-10,9.27-14.94,1.58-2.47,3.24-4.89,5.28-8-5.78-1.47-10.85-2.87-16-4-7.75-1.75-13.11,2-17,8.6a23.91,23.91,0,0,0-2.64,6.81c-2.3,10.4-.49,20.5,2.69,30.38,1.41,4.37,3.3,8.57,5,12.85l-.76.75-15.84-12.93c-5,21.12,2.47,39.19,11.33,57l-.81.56L290,244.2c-2.3,6.32-4.47,12.62-6.89,18.82-1.17,3-.68,5.1,1.32,7.57,6.65,8.22,13.06,16.65,19.49,25.05a43.13,43.13,0,0,1,2.77,5l-14.16-1.22c-1.21,4.27-2.23,8.62-3.7,12.8-.72,2-.45,3.45,1,4.77,3.84,3.57,7.75,7.07,11.58,10.67,2.67,2.52,5.23,5.16,7.84,7.74l-.39,1.46-15,.72c-.56,1.09-1.38,2.91-2.39,4.59-2.7,4.47-2.86,5.85.62,9.82,4.26,4.88,8.93,9.37,13.34,14.12,1.48,1.59,2.7,3.45,4.39,5.65-5.27,1-9.29-.24-13.15-1.91-2.38-1-3.46-.38-4.29,2-1.91,5.49-1.57,10.79,1.91,15.28,3.22,4.16,7.2,7.66,10.69,11.6,2.26,2.56,4.24,5.4,6.51,8.32-3.75,2.3-6.89,1.89-10.11,1.45a3.43,3.43,0,0,0-2.94,1.23,91.3,91.3,0,0,0-4.07,9.79A3.12,3.12,0,0,0,295,422c2.76,3.56,5.43,7.22,8.5,10.46,3.32,3.5,7.12,6.5,10.55,9.89a39.4,39.4,0,0,1,3.68,5l-.59.75-8.75-2.1c-7-1.7-7-1.7-10.51,4.74a18.79,18.79,0,0,1-1.25,2.35,4.12,4.12,0,0,0,.25,5.75c3.11,3.2,6.39,6.25,9.76,9.16,1.42,1.23,1.74,2.12.86,3.89-2.56,5.13-4.92,10.37-7.47,15.81,4.75,1,1.06,5.93,4.12,8.53,2.26-18.49,15.32-27,29-35.23a84.86,84.86,0,0,1-11.76-26c-5.19-18.68-6.52-37.89-7.14-57.17-1.06-32.81.41-65.7-3.22-98.41-2.23-20.13-5.76-39.87-14.85-58.1a5,5,0,0,1,.17-4.24c3.18-4.18,6.22-8.71,10.17-12,9.12-7.51,20.13-9.43,31.4-9,25.27.86,47.63,9.71,67,26.91a99.72,99.72,0,0,0,15.9,11.38c7.42,4.35,15.47,4.45,22.88.09a125.17,125.17,0,0,0,17.75-12.71c10.79-9.21,22.55-16.39,35.95-20.54,14.59-4.52,29.38-7,44.54-3.68,11.22,2.47,20.28,8.37,26.28,18.88a5.88,5.88,0,0,1,.2,5.88c-2.95,7.07-6,14.16-8.13,21.51-6.69,23.16-8.25,47.13-8.91,71.11-.87,32.14.47,64.36-3.4,96.38-1.57,13.05-4.05,25.89-9.58,37.84-1.93,4.17-4.33,8.1-6.49,12.07,13.74,8,26.22,16.9,28.88,35.1,2.67-3-.63-7.56,3.88-8.73-2.49-5.34-4.78-10.51-7.3-15.55-1-2-.61-3.07,1.11-4.35a56.72,56.72,0,0,0,7.95-6.81c3.53-3.78,3.47-4.85.94-9.3a15.89,15.89,0,0,1-1.78-3.18c-1.05-3.57-3.29-3.76-6.29-3-3.92,1-7.92,1.77-11.89,2.63a12.86,12.86,0,0,1,3.05-5.33c2.85-2.89,6-5.45,8.77-8.42,3.65-3.92,7.07-8.06,10.47-12.21a3.43,3.43,0,0,0,.61-2.73c-1-3-2.45-5.92-3.54-8.94-.77-2.11-1.8-2.5-3.92-1.95-3,.79-6.13,1-9.49-1.55,2.39-3,4.49-5.95,6.88-8.61,2.94-3.26,6.34-6.09,9.14-9.47,3.79-4.59,5.31-9.93,3.32-15.95-1.36-4.11-1.39-4.05-5.47-2.62-3.69,1.29-7.43,2.66-12.25,1.19,2.23-2.64,4-4.85,5.88-6.93,4.34-4.81,8.76-9.54,13.1-14.35,1.69-1.88,1.66-4,.45-6.19-1.33-2.38-2.66-4.75-4-7.18a23.43,23.43,0,0,1-15.35-1.06c2.55-2.5,4.54-4.52,6.6-6.45,4.41-4.12,8.9-8.13,13.23-12.33.81-.79,1.67-2.42,1.42-3.37-1.23-4.83-2.82-9.56-4.22-14.13l-13.43,1.06-.5-1.25c2.61-3.66,5.1-7.43,7.86-11,4.75-6.08,9.75-11.95,14.47-18.06,1-1.25,2-3.4,1.6-4.68-2.19-7.2-4.8-14.25-7.31-21.47-1.48.92-2.93,1.89-4.43,2.73s-2.87,1.43-4.31,2.14c8.39-18.33,15.9-36.28,10.82-57.39-6,3.87-10,10-16.79,12.49,1.92-4.84,3.91-9.07,5.3-13.52,3.25-10.45,5.38-21.13,2.1-32-2-6.68-5.78-12.39-12.94-13.56-7.54-1.23-14.5,1.89-21.94,4.54,1.6,2.39,3,4.37,4.27,6.39,3.42,5.29,6.95,10.51,10.12,16a7.12,7.12,0,0,1,.51,5.31c-2.44,6.3-7.26,10.44-13.17,14.53.46-1.27.67-1.76.82-2.27,4.34-14.05,1.49-26.4-8.58-36.66-7-7.17-18.6-7.09-25.09-.32,3.31,4.81,6.9,9.44,9.87,14.48,6.64,11.29,6.46,7,1.19,19.91a21.06,21.06,0,0,1-2.91,4.81,36.15,36.15,0,0,1-3.56,3.55c1.93-12.18-1.4-22.46-6.7-32.82-3.67-7.16-8.42-9-15.33-7.86-5.32.9-10.37,2.41-14.31,6.56,2.51,3.26,5,6.08,7,9.21,4.25,6.48,7.5,13.42,6.72,21.6a19.48,19.48,0,0,1-9.69,15.62c.56-2.18.89-3.45,1.21-4.71,1.64-6.53,1.37-13-1.52-19-2.35-4.89-5.67-9.28-7.94-14.2-2-4.37-5.35-5.38-9.36-5.63a16.79,16.79,0,0,0-12.23,4.31c-3.23,2.77-6.3,5.73-10,9.17,4.7,3.44,8.36,5.95,11.85,8.7,4.09,3.23,8.07,6.62,12,10,1.42,1.21,1.53,2.61.52,4.42-1.55,2.8-2.59,5.91-4.09,8.75-2.88,5.48-5.89,10.88-9,16.24-.57,1-1.74,1.59-2.64,2.37l-1-.67c1-3.25,1.87-6.55,3-9.73,1.35-3.64,3.22-7.09,4.38-10.79a9.5,9.5,0,0,0-3-10.64,52.1,52.1,0,0,1-10.78-12.36c-2.25-3.52-3.42-3.48-5.69,0a51,51,0,0,1-10.76,12.36c-3.44,2.73-4.33,6.74-3,10.91,1.23,3.8,3.14,7.34,4.53,11.09C421.37,221.14,422.15,224.29,423.08,227.38Zm117,153.37c.07-22.62-1.34-36.9-6.43-52.56a91,91,0,0,0-9.77-21c-5.38-8.35-12.64-9.09-20.21-2.86a158.64,158.64,0,0,0-14.79,14c-10.1,10.74-20.13,21.49-32.54,29.45-16.29,10.44-32.65,10.75-48.45-.49-8.39-6-16.07-13.09-23.7-20.12-8.12-7.49-15.49-15.85-23.76-23.14-6.66-5.87-13.12-4.76-19,2a30.86,30.86,0,0,0-3.39,4.89C331.43,322.36,328.3,335,326.45,348c-3.21,22.57-2.25,45.15.64,67.67,1.33,10.36,3.61,20.5,8.5,29.77,3.66,6.94,9.05,11.71,17,11.35,6.17-.28,12.61-.75,18.35-2.85,12.65-4.63,25-10.19,37.35-15.64,15.18-6.68,30.39-7.59,45.73-.88,9,3.94,17.9,8.21,27,12,9.46,4,19.05,7.73,29.51,7.7,8.59,0,14.88-4,18.64-12a84.41,84.41,0,0,0,4.65-12.14C538.9,415.52,539.82,397.41,540.06,380.75Zm15.68-143.58c5.53-11.71,1.47-22.67-10-28.27-7.24-3.53-15-4.75-22.87-5.06-17.79-.68-33.24,5.79-47.29,16.72-8.87,6.89-17.7,13.89-26.91,20.26-10,6.9-20.68,7.27-31.11.93-5.75-3.49-11.12-7.64-16.61-11.58-8.13-5.85-15.8-12.53-24.39-17.52-18.08-10.51-37.25-11.81-56.65-4.13-12.4,4.9-16.95,17-11.06,28.36,1.65-1.29,3.28-2.53,4.87-3.82,4.66-3.8,9.18-7.78,14-11.39a39.28,39.28,0,0,1,20.27-8c13-1.24,24.58,3,34.53,11.3,9.64,8,18.61,17,27.82,25.55,6,5.56,12,10.93,19.58,14a7.14,7.14,0,0,0,5.07-.08c10.33-4.54,18-12.84,26.18-20.44s16.15-15.17,24.93-21.75c10.54-7.89,22.66-10.44,35.6-7.75,8.87,1.84,15.89,7.16,22.67,12.94ZM372.18,466.91c35.68,21.6,93.93,17.43,120-.19-17.87-15.23-37.91-23.14-60.9-22.89C409.07,444.07,389.64,451.85,372.18,466.91Zm37.07-177c-2.35-6.84-4.55-14-7.25-20.88-3.17-8.16-6-16.67-10.35-24.1-8.21-13.85-22.59-17.92-36.91-11.44-11.86,5.36-20.17,15-27.59,25.61a3.46,3.46,0,0,0,.12,2.7,50.67,50.67,0,0,0,14.65,19.73c15.58,12.63,33.57,17.05,52.92,16.58,3.88-.09,7.75-.67,11.63-1a2,2,0,0,0-1.34-1.29c-12.52-4.68-25.21-8.93-37.51-14.18-10.21-4.35-20.22-9.45-28.82-16.91-1.05-.9-1.55-2.48-2.31-3.75a17.84,17.84,0,0,1,4-1.41c18.2-1.74,34,5.39,48.83,15.13C396.4,279.28,402.83,284.94,409.25,289.9Zm48.83,6.44.07.57c.47.11.94.27,1.42.34a87.15,87.15,0,0,0,44.75-4.89c14-5.51,25.34-14.52,32.23-28.85,1.2-2.49,1.5-4.38-.5-6.53-5-5.37-9.58-11.22-14.91-16.2-6.91-6.45-15.21-10.21-24.67-10.07-12.9.19-21.53,7.65-26.48,19.23-5.61,13.12-10.09,26.75-15.38,41,1.5-1.3,2.31-2,3.09-2.69a135.48,135.48,0,0,1,31.71-21.68c11-5.33,22.48-8.24,34.7-7.08,1.37.13,2.69,1,4,1.47-.78,1.27-1.34,2.8-2.38,3.76a44.67,44.67,0,0,1-6.24,4.75,222.47,222.47,0,0,1-46.28,21.87C468.23,293.13,463.14,294.69,458.08,296.34Zm-51.82-37.67c.66,2.31,1,3.64,1.42,4.91q6.35,18.32,12.76,36.6c.78,2.22.1,3.24-1.81,4.48-8.12,5.27-12.1,13.13-12.14,23A17.57,17.57,0,0,0,410.33,339a43.2,43.2,0,0,0,1.28-6.9,47.32,47.32,0,0,1,1.46-8.21c.53-1.57,2.11-3.69,3.36-3.8s3.52,1.57,4.07,3a94.71,94.71,0,0,1,3.35,12.17c1,4.13,1.54,8.35,2.6,12.44.78,3,2.61,5.32,5.91,5.28,3.15,0,4.91-2.42,5.67-5.17,1.17-4.17,1.66-8.55,2.75-12.74,1.17-4.48,2.22-9.11,4.23-13.2,1.69-3.44,4.53-3.06,5.86.59,1.15,3.18,1.52,6.69,2.11,10.07.38,2.17.53,4.38.77,6.57l1,0c.44-.86,1-1.69,1.32-2.58,4.74-11.83.65-24.87-10.33-32.08-2.06-1.36-2.18-2.59-1.47-4.62q6.45-18.45,12.83-36.93c.37-1.05.67-2.13,1-3.2C440.75,274.39,423.88,274.39,406.26,258.67ZM349.07,736.12c-2.22-3.57-4.62-6.78-6.35-10.34-4.87-10-9.05-20.33-14.29-30.09-4.47-8.32-4.77-16.48-2-25.21,1.27-4,2.3-8.15,3.45-12.23.18-.65.19-1.67.59-1.87,3.11-1.58,1.67-4.14,1.24-6.33a64.14,64.14,0,0,0-2-7.42c-2.38-7.41-3-14.85-.79-22.45,1.31-4.45,2.43-9,3.62-13.44l-24.77-6c5.29,7.17,10.27,13.94,15.46,21-2.46.34-4.29.46-6.06.87-7.94,1.81-11.26,10.47-6.8,17.42,3.79,5.92,8.18,11.18,14.31,14.84-3.25,6.25-6.66,12.09-9.41,18.25-3.74,8.4-5,6.5,2.58,13.5a5.43,5.43,0,0,1,1.91,5.85c-1.26,5.2-2.4,10.44-3.78,15.61-1,3.89-1.41,7.36,2.3,10.15,1.53,1.15,2.59,3,3.87,4.48,3.36,3.92,6.46,8.15,10.16,11.69C337.3,739.24,343.05,739.6,349.07,736.12ZM532.19,606.79c.78,2.92,1.37,6,2.42,8.86,3.45,9.44,3.17,18.74.14,28.28-1.37,4.34-3.46,8.42-.35,13.84s4.12,12.23,5.11,18.6c.66,4.24.65,9.16-.79,13.09a282,282,0,0,1-11.62,26.2c-3.42,7-7.38,13.77-11.1,20.63,5.72,3.07,11,2.71,16-1.75a82.5,82.5,0,0,0,7.49-8.31c2.36-2.75,4.31-6,7-8.3,3.1-2.62,3.23-5.39,2.25-8.9-1.23-4.4-2.13-8.91-3.39-13.3s-1.06-8.3,3.27-10.94c.8-.49,1.3-1.48,2-2.18a3.63,3.63,0,0,0,.69-4.77c-2.13-4.14-4-8.41-6.11-12.57-1.73-3.46-3.57-6.85-5.49-10.51,6.9-3.88,11.27-9.93,15.42-16.25a8,8,0,0,0,.91-7.26c-1.59-5.52-5.3-8.19-10.55-8.93-1.3-.18-2.62-.27-4.41-.45,5.23-7.1,10.11-13.73,15.29-20.74ZM354.25,225.73c-9.57-1.2-21.48,1.48-29,6-8.09,4.86-11.66,11.92-10.13,21.6,2.54,16.12,5.17,32.22,7.67,48.34.89,5.71,1.51,11.46,2.25,17.18,2.65-10.72,9-18.72,16.92-26.16-8.43-3.85-12.16-11.24-15.85-18.59-2.09-4.16-3.67-8.6-5.81-12.72-1.81-3.49-1.51-6.49.49-9.71,4.18-6.77,10-11.65,16.47-15.77C342.64,232.48,348.19,229.34,354.25,225.73Zm185.21,93c.16-.94.33-1.87.47-2.8l5.76-38.8c1.29-8.72,2.74-17.43,3.82-26.19.75-6-.87-11.38-5.35-15.47-9.59-8.75-21.27-10.06-33.35-10a8.86,8.86,0,0,0,2.45,2c4.49,2.64,9,5.16,13.47,7.92,6.89,4.3,13.17,9.39,17.18,16.83,1,1.8,2,4.61,1.35,6.14-5.58,12.66-9.15,26.8-22.39,34.54C530.39,300.3,536.94,308.08,539.46,318.77Z" transform="translate(-9.08 -9.08)"/><path class="cls-3" d="M337,385.69c.55-21.83,2-39,8.9-55.07,1.81-4.23,4.67-8,7.16-11.88,1.22-1.89,2.58-2.23,4.86-1,11.78,6.56,21.64,15.8,31.9,24.47,9,7.58,18.35,14.28,29.61,18,12.83,4.21,24.95,2,36.08-4.52,9-5.29,17.05-12.4,25.51-18.71s17-12.58,25.35-19c2.69-2.07,4.28-.76,5.92,1.31,5.61,7.08,8.86,15.37,10.87,24.13,5.5,23.91,6.22,48,0,71.82-1.65,6.37-5.07,12.24-7.78,18.29-1,2.15-2.46,2.62-4.73,1.61-12-5.28-24-10.41-36-15.58-13.88-6-28-10.85-43.3-10.68-13.12.14-25.44,4.06-37.46,9.09q-20.19,8.43-40.22,17.28c-2.27,1-3.32.21-4.5-1.52a58.69,58.69,0,0,1-9-23.2C338.48,400.86,337.62,391,337,385.69Zm32.27,29.66-2,.29c-1.57-6.58-3.25-13.14-4.63-19.76-.44-2.08-1.12-3.17-3.12-2.54-2.86.91-5.63,2.09-8.47,3.05-2,.68-2.4,2.12-2.36,4.14a48.35,48.35,0,0,0,4.49,19.1c.77,1.73,1.68,2.44,3.45,2,5.22-1.27,10.63-2,15.64-3.86,10.61-4,20.95-8.72,31.52-12.85,15.84-6.18,32.09-7.77,48.41-2.58,9.54,3,18.68,7.35,28.13,10.71,8.62,3.07,17.4,5.64,26.13,8.38,2.75.87,4.47,0,5.68-3a49,49,0,0,0,3.84-18.58c0-.83-.11-2.16-.59-2.43-3.94-2.17-7.83-4.69-12.73-4-1.41,7.63-2.6,15.17-6.62,21.92a48.94,48.94,0,0,1,.2-10.49c.35-3.1,1.07-6.17,1.31-9.28a3.52,3.52,0,0,0-1.51-2.81c-7.71-3.24-15.65-5.65-24.07-5.5a3.51,3.51,0,0,0-2.56,2.06c-1.23,4.12-2.14,8.35-3.23,12.8-4.15-4.49-.65-9.94-1.95-15.33l-29.43-1.36-2.17,7.73-.74-.13-1.88-7.62-29.55,1.4c-1.17,5.46,2.14,10.86-1.94,15.34-1.06-4.37-2.16-8.33-2.94-12.36-.44-2.31-1.55-2.68-3.59-2.63-8,.2-15.5,2.36-22.81,5.41a4.06,4.06,0,0,0-1.92,3.17c.19,3.33,1,6.62,1.34,9.94S369,412.13,369.22,415.35Zm2.36-69.07,1.71.49c-.8,4.06-1.43,8.18-2.45,12.19-2.46,9.76-2.63,10,6.3,13.8,6.09,2.59,12.5,4.34,19.12,6.59.73-3.28,1.11-5.59,1.78-7.8s1.65-4.26,2.49-6.38l1.07.35c0,3.77.2,7.56-.07,11.31-.19,2.83.74,4.24,3.39,4.43l24.95,1.7a38.42,38.42,0,0,1,.66-5.49,2.51,2.51,0,0,1,1.81-1.61c.61,0,1.54,1,1.73,1.7a40.61,40.61,0,0,1,.75,5.34l24-1.46c3.07-.18,4.56-1.51,4.22-5.08s-.07-7.32-.07-11l.79-.28a23.23,23.23,0,0,1,2,3.84,68.29,68.29,0,0,1,1.81,7.47c.37,1.86,1.23,2.27,3,1.9a81.05,81.05,0,0,0,22.13-8.08c2.55-1.39,3.29-2.85,2.43-5.78-1.34-4.6-2.28-9.32-3.26-14a19.8,19.8,0,0,1,0-3.93l1.14-.22,6.77,18.8c7-.81,11.4-5.55,15.58-10.56a3.52,3.52,0,0,0,.31-2.55,74.25,74.25,0,0,0-8.53-21.79c-6,3.82-12,7.1-17.37,11.26-8.21,6.33-15.89,13.38-24,19.91-9.6,7.78-20.43,12.24-32.73,12.47-13.43.25-25-4.81-35.39-13.27-7.53-6.14-14.81-12.63-22.34-18.79a66,66,0,0,0-18.16-10.95A69,69,0,0,0,349,351.66a3.89,3.89,0,0,0,.32,2.86c4.25,4.86,8.43,10,15.56,10.5C367.11,358.72,369.34,352.5,371.58,346.28Z" transform="translate(-9.08 -9.08)"/><path class="cls-2" d="M417.22,159.66l-.16.16v.08Z" transform="translate(-9.08 -9.08)"/><path class="cls-2" d="M571.77,163.37l-.2.13v.07Z" transform="translate(-9.08 -9.08)"/><path class="cls-2" d="M489.75,147.65c3.72.71,7-.67,9.92-3,2.55-2.06,5-4.28,7.47-6.41a10.75,10.75,0,0,1,2.25-1.5,17.23,17.23,0,0,0,.65-2.91c.23-2.52.33-6.17.29-11.14s0-8.86.26-11.46c.77-9,3.31-16.71,7.73-22.46-4.46,3.3-7.49,6.07-9.15,8.29a27.52,27.52,0,0,0-5,14.3c-.28,3.62-.41,5.39-.68,8.87a25,25,0,0,1-2.56,6.88c-1.3,2.47-2.52,3.65-3.68,3.6-1.75-.08-2.38-3.72-1.88-11.52-.86,2.3-2.8,4.81-5.77,7.53-1.87,2-2.94,5.66-3.2,10.71-.13,2.34-.2,5.28-.21,8.63l.21.71A26,26,0,0,0,489.75,147.65Z" transform="translate(-9.08 -9.08)"/><path class="cls-2" d="M458,150.1c0,.4,0,.6,0,1a26,26,0,0,0-1.17,5.39,24.91,24.91,0,0,1,2.57.93c1.46.63,4.1-.16,5.48-1.26,2-1.58,3.39-4,4.93-6.14,2.75-3.87,5.09-5.5,8.44-5.4-.23-.79-.48-1.64-.78-2.59a61.12,61.12,0,0,0,3.76-18.49,40.87,40.87,0,0,0-.25-6.76c-1.65,2.13-2.88,3.16-3.72,3.13-1.43,0-2.08-2.09-1.94-6.32s1.09-10.25,2.93-18.47,3.67-14,5.43-16.66a37.06,37.06,0,0,0-7.95,11.27c-2.39,7-3.56,10.39-5.84,17-3,8.88-4.93,13-5.88,13-.48,0-.7-1.08-.67-3.28,0-1.6.18-4,.48-7.3-4.25,7.77-6.3,15.12-6.35,22,0,2.25.07,5.6.27,9.9S458.05,148.13,458,150.1Z" transform="translate(-9.08 -9.08)"/><path class="cls-2" d="M518.28,137.26c1.34.72,2.6,1.58,3.87,2.43a10.2,10.2,0,0,0,11.05.82c3.81-2,7.39-4.52,11.08-6.79a39.71,39.71,0,0,1,5.05-3c5.54-2.32,8.79-1.37,12.89,3,5.71,6.15,9.56,13.33,12.47,21,0-.15,0-.28,0-.44l-.25-.47c3.37-6,5.69-11.35,6.64-15.59,1.36-6,.66-12.29-2.26-19a20.54,20.54,0,0,1,0,7.31,11,11,0,0,1-3.37,6c-1.74,1.61-3.43,2.32-5.09,2.14s-2.27-2.73-2.12-7.89c.26-9.41.39-15.55.32-17.32-.61-7.48-2.64-13.64-6.11-18a41.36,41.36,0,0,1,.57,17.25A17.13,17.13,0,0,1,557,119.65c-3.28,2.72-6.33,3.92-9.22,3.64-3.13-.3-4.43-2.25-3.91-6a21.28,21.28,0,0,1,1.41-4.8c-2.34.74-5.19,4.73-8.51,11.24-3,5.86-6.2,8.53-9.49,8.28-2.36-.18-3.39-1.51-3.11-4.07a21.46,21.46,0,0,1,2.6-7.09c-4.71,3.72-8.26,9.05-10.7,15.48A13.67,13.67,0,0,1,518.28,137.26Z" transform="translate(-9.08 -9.08)"/><path class="cls-2" d="M355.76,137a18.17,18.17,0,0,1,2.48,1.76c2.5,2.11,4.87,4.41,7.47,6.39a11.56,11.56,0,0,0,12.21,1.68c.49-.21,1-.34,1.54-.51,9.27-3.06,10.9-2.49,16.58,5.58a17.62,17.62,0,0,0,4.09,4.7c1.34.89,3.65,1.5,5,.91a21.84,21.84,0,0,1,12.39-1.9l.06-.34a18.69,18.69,0,0,0,.37-4,10.91,10.91,0,0,0-.27-1.72l-.37-.48a66.43,66.43,0,0,0,2.15-18,39.73,39.73,0,0,0-7.22-20.4,27,27,0,0,1,1.91,8,12.14,12.14,0,0,1-1.63,7.17c-1.24,2-2.68,3.09-4.33,3.17s-2.93-2.53-4.15-8.06c-2.21-10.07-3.6-16.63-4.1-18.48-2.44-7.8-5.84-13.77-10.19-17.38a48.63,48.63,0,0,1,4.67,17.82,18.25,18.25,0,0,1-3.13,12.6c-2.47,3.45-5.12,5.22-8,5.46-3.11.26-4.87-1.45-5.31-5.32a21.53,21.53,0,0,1,.18-5.07c-2.08,1.22-3.86,5.78-5.46,12.76-1.43,6.28-3.91,9.34-7.22,9.6-2.37.18-3.73-.93-4.09-3.42a19.24,19.24,0,0,1,.78-7.23A29.93,29.93,0,0,0,355.76,137Z" transform="translate(-9.08 -9.08)"/><path class="cls-2" d="M282,164.62l.82.3,1-.29,0,.4c.79.73,1.53,1.4,2.22,2,.16-.56.31-1.13.46-1.69,3.26-11.69,8-22.7,16.08-31.84,3.68-4.17,7.27-5.13,13-2.49,2.92,1.34,5.52,3.42,8.29,5.12a77.69,77.69,0,0,0,7.83,4.63c3.95,1.84,7.78.8,11.4-1.37a50.92,50.92,0,0,1,5.4-3,7.57,7.57,0,0,1,2.14-.62c-1.45-6.31-3.89-11.31-7.34-14.6.34,1.26.6,2.42.79,3.49.84,4.83-.42,7.29-3.74,7.65s-6-2.17-7.57-7.91c-1.76-6.41-3.69-10.19-5.82-10.8,1.29,6.78-.41,10.27-5.12,11a8.73,8.73,0,0,1-6.93-2.16,12.53,12.53,0,0,1-4.38-7.39c-1.24-5.65,0-12.59,4-21.43-5,5.41-8.95,15-11.46,27.13-2.24,10.83-4.31,15.77-6.57,16.12s-3.86-1.06-4.78-4.35c-.8-2.81-.48-6.19,1-10.3-3.66,5.58-5.8,10.65-6.51,15.38s.26,10.59,2.26,16.76c.2.64.3,1,.49,1.61-.13.26-.2.4-.34.66-1.69.75-4.65,1.09-5.07,1.63a8.78,8.78,0,0,1-1.21,2.36l.25.77A3.12,3.12,0,0,0,282,164.62Z" transform="translate(-9.08 -9.08)"/><path class="cls-2" d="M422.33,156.92a28.22,28.22,0,0,1,5.75,3.13c3.06,2.14,5.28,2.1,8.32,0a32.15,32.15,0,0,1,4.34-2.46,7,7,0,0,0,.24-1.19c.06-.48.09-.72.16-1.2A70.67,70.67,0,0,0,445.32,144c1.55-5.18,2.35-9.35,2.33-11.77s-.28-6.09-.8-11.18-.8-9.06-.83-11.74c-.09-9.27,1.73-17.45,5.61-24.05-8.39,8-12.31,16-12.16,23.83.11,5.93.17,9.07.18,9.68a24.42,24.42,0,0,1-2.06,7c-1.17,2.7-2.26,4-3.31,4-1.63,0-2.56-3.6-2.81-11.5-.63,2.39-2.32,5-5,7.72-1.68,2-2.39,5.61-2.17,10.69.12,2.55.36,5.68.72,9.2l1.17,2.23c-.11.17-.52.88-1.24,2.13s-1.45,1.87-2.22,1.89c-.06.19-.08.29-.14.49a25,25,0,0,1-.16,3.38C422.38,156.36,422.35,156.64,422.33,156.92Z" transform="translate(-9.08 -9.08)"/></svg>